<?xml version="1.0" encoding="utf-8"?>
<!-- Generator: Adobe Illustrator 25.0.0, SVG Export Plug-In . SVG Version: 6.00 Build 0)  -->
<svg version="1.1" id="Layer_1" xmlns="http://www.w3.org/2000/svg" xmlns:xlink="http://www.w3.org/1999/xlink" x="0px" y="0px"
	 viewBox="0 0 113.38 617.51" style="enable-background:new 0 0 113.38 617.51;" xml:space="preserve">
<style type="text/css">
	.st0{fill:#3EA481;}
</style>
<g>
	<path class="st0" d="M111.51,617.51L2.02,586.29v-18.93l109.48-31.22v16.69l-31.72,9.03v28.69l31.72,9.03V617.51z M65.26,586.44
		v-20.45l-35.34,10.19L65.26,586.44z"/>
	<path class="st0" d="M111.51,527.11H2.02v-35.19c0-10.31,2.53-18.33,7.59-24.06c4.87-5.54,11.06-8.31,18.57-8.31
		c12.38,0,20.28,4.48,23.7,13.44c0.63,1.54,1.18,3.35,1.66,5.42c1.16-6.07,4.07-11.08,8.74-15.03c4.96-4.19,11.47-6.29,19.51-6.29
		c11.47,0,19.58,3.61,24.35,10.84c3.57,5.54,5.35,13.34,5.35,23.41V527.11z M47.33,509.83v-17.78c0-4.87-1.88-9.08-5.64-12.65
		c-2.89-2.79-6.72-4.19-11.49-4.19c-9.11,0-13.66,5.61-13.66,16.84v17.78H47.33z M96.98,509.83v-18.5c0-6.75-1.59-11.51-4.77-14.31
		c-2.65-2.36-6.58-3.54-11.78-3.54c-4.29,0-8.33,1.61-12.14,4.84c-4.05,3.42-6.07,7.76-6.07,13.01v18.5H96.98z"/>
	<path class="st0" d="M68.07,447.76c-3.66,0.48-7.3,0.72-10.91,0.72s-7.25-0.22-10.91-0.65c-3.66-0.43-7.38-1.16-11.17-2.17
		c-3.78-1.01-7.36-2.26-10.73-3.76c-3.37-1.49-6.56-3.38-9.58-5.67c-3.01-2.29-5.6-4.85-7.77-7.7C2.34,422.42,0,414.97,0,406.21
		c0-12.04,4.96-21.68,14.89-28.91c10.79-7.8,24.88-11.71,42.28-11.71c17.73,0,31.7,3.76,41.91,11.27
		c9.54,7.03,14.31,16.81,14.31,29.34c0,11.9-4.79,21.66-14.38,29.27C90.91,441.93,80.6,446.02,68.07,447.76z M41.44,429.87
		c2.87,0.51,5.55,0.86,8.06,1.05c2.51,0.19,5.07,0.29,7.7,0.29c2.63,0,5.22-0.1,7.77-0.29c2.55-0.19,5.25-0.54,8.09-1.05
		c2.84-0.51,5.47-1.14,7.88-1.92c2.41-0.77,4.73-1.82,6.97-3.14c2.24-1.32,4.16-2.81,5.75-4.44c3.47-3.71,5.2-8.38,5.2-14.02
		c0-15.66-13.92-23.49-41.77-23.49c-22.69,0-36.37,5.3-41.05,15.9c-1.01,2.31-1.52,4.88-1.52,7.7s0.51,5.42,1.52,7.8
		s2.35,4.41,4.01,6.07s3.67,3.16,6.03,4.48c2.36,1.33,4.79,2.37,7.3,3.14C35.89,428.73,38.58,429.37,41.44,429.87z"/>
	<path class="st0" d="M79.13,352.08H2.02v-17.27h72.99c12.19,0,19.75-3.93,22.69-11.78c0.77-2.02,1.16-4.29,1.16-6.79
		s-0.34-4.77-1.01-6.79c-0.67-2.02-1.52-3.66-2.53-4.91s-2.3-2.34-3.87-3.25c-1.56-0.92-3-1.59-4.3-2.02s-2.84-0.79-4.62-1.08
		c-2.31-0.29-4.82-0.43-7.52-0.43H2.02V280.1h77.11c11.03,0,19.78,3.64,26.23,10.91c5.35,6.02,8.02,14.41,8.02,25.15
		c0,16.33-6.19,27.17-18.57,32.52C89.71,350.95,84.48,352.08,79.13,352.08z"/>
	<path class="st0" d="M16.55,271.65H2.02v-76.38h14.53v29.56h94.96v17.27H16.55V271.65z"/>
	<path class="st0" d="M79.13,153.28H2.02V136h72.99c12.19,0,19.75-3.93,22.69-11.78c0.77-2.02,1.16-4.29,1.16-6.79
		c0-2.5-0.34-4.77-1.01-6.79c-0.67-2.02-1.52-3.66-2.53-4.91c-1.01-1.25-2.3-2.34-3.87-3.25c-1.56-0.91-3-1.59-4.3-2.02
		s-2.84-0.79-4.62-1.08c-2.31-0.29-4.82-0.43-7.52-0.43H2.02V81.3h77.11c11.03,0,19.78,3.64,26.23,10.91
		c5.35,6.02,8.02,14.41,8.02,25.15c0,16.33-6.19,27.17-18.57,32.52C89.71,152.14,84.48,153.28,79.13,153.28z"/>
	<path class="st0" d="M83.47,71.25l-4.55-13.88c0-0.05,0.36-0.14,1.08-0.29s1.67-0.4,2.85-0.76c1.18-0.36,2.48-0.87,3.9-1.52
		c1.42-0.65,2.84-1.6,4.26-2.85c1.42-1.25,2.71-2.72,3.87-4.41c2.65-3.76,3.97-8.43,3.97-14.02c0-5.59-1.37-9.69-4.12-12.32
		c-2.75-2.63-6.01-3.94-9.79-3.94c-3.78,0-6.84,0.39-9.18,1.16c-2.34,0.77-4.37,2.12-6.11,4.05c-2.89,3.23-5.49,8.82-7.8,16.77
		c-4.09,14.02-10.43,23.03-19.01,27.03c-4.48,2.07-9.76,3.11-15.83,3.11c-5.11,0-10.09-1.81-14.96-5.42C4.02,57.64,0,48.68,0,37.07
		c0-9.2,2.77-16.74,8.31-22.62c3.9-4.19,8.82-7.32,14.74-9.39l3.83-1.37c1.16-0.43,1.9-0.72,2.24-0.87l4.99,14.09
		c-10.12,3.18-16.36,8.14-18.72,14.89c-0.58,1.69-0.87,3.44-0.87,5.28c0,10.02,5.16,15.03,15.46,15.03c4.72,0,8.34-1.4,10.84-4.19
		c2.17-2.31,3.88-5.35,5.13-9.11l1.16-3.47c0.68-1.98,1.04-3.06,1.08-3.25l1.08-3.18c2.89-8.24,5.44-13.8,7.66-16.69
		c3.28-4.24,6.29-7.01,9.03-8.31C71.62,1.3,77.57,0,83.83,0c4.91,0,9.9,1.4,14.96,4.19c6.79,3.76,11.25,9.71,13.37,17.85
		c0.82,3.13,1.23,6.55,1.23,10.26c0,3.71-0.34,7.19-1.01,10.44c-0.67,3.25-1.59,6.06-2.75,8.42c-1.16,2.36-2.48,4.53-3.97,6.5
		c-1.49,1.98-3.07,3.64-4.73,4.99c-1.66,1.35-3.32,2.53-4.99,3.54s-3.24,1.82-4.73,2.42c-1.49,0.6-2.82,1.1-3.97,1.48
		c-1.16,0.39-2.07,0.66-2.75,0.83C83.8,71.1,83.47,71.21,83.47,71.25z"/>
</g>
</svg>
