<?xml version="1.0" encoding="utf-8"?>
<!-- Generator: Adobe Illustrator 25.0.0, SVG Export Plug-In . SVG Version: 6.00 Build 0)  -->
<svg version="1.1" id="Layer_1" xmlns="http://www.w3.org/2000/svg" xmlns:xlink="http://www.w3.org/1999/xlink" x="0px" y="0px"
	 viewBox="0 0 113.67 1287.41" style="enable-background:new 0 0 113.67 1287.41;" xml:space="preserve">
<style type="text/css">
	.st0{fill:#FDD3D0;}
</style>
<g>
	<path class="st0" d="M111.79,1287.41H2.31v-35.19c0-10.31,2.53-18.33,7.59-24.06c4.87-5.54,11.06-8.31,18.57-8.31
		c12.38,0,20.28,4.48,23.7,13.44c0.63,1.54,1.18,3.35,1.66,5.42c1.16-6.07,4.07-11.08,8.74-15.03c4.96-4.19,11.47-6.29,19.51-6.29
		c11.47,0,19.58,3.61,24.35,10.84c3.56,5.54,5.35,13.34,5.35,23.41V1287.41z M47.62,1270.14v-17.78c0-4.87-1.88-9.08-5.64-12.65
		c-2.89-2.79-6.72-4.19-11.49-4.19c-9.11,0-13.66,5.61-13.66,16.84v17.78H47.62z M97.27,1270.14v-18.5c0-6.75-1.59-11.51-4.77-14.31
		c-2.65-2.36-6.58-3.54-11.78-3.54c-4.29,0-8.33,1.61-12.14,4.84c-4.05,3.42-6.07,7.76-6.07,13.01v18.5H97.27z"/>
	<path class="st0" d="M111.79,1206.19H2.31v-17.27h109.48V1206.19z"/>
	<path class="st0" d="M68.36,1176.48c-3.66,0.48-7.3,0.72-10.91,0.72s-7.25-0.22-10.91-0.65s-7.38-1.16-11.17-2.17
		c-3.78-1.01-7.36-2.26-10.73-3.76s-6.56-3.38-9.58-5.67c-3.01-2.29-5.6-4.85-7.77-7.7c-4.67-6.12-7.01-13.56-7.01-22.33
		c0-12.04,4.96-21.68,14.89-28.91c10.79-7.8,24.88-11.71,42.28-11.71c17.73,0,31.7,3.76,41.91,11.27
		c9.54,7.03,14.31,16.81,14.31,29.34c0,11.9-4.79,21.66-14.38,29.27C91.2,1170.66,80.89,1174.75,68.36,1176.48z M41.73,1158.6
		c2.87,0.51,5.55,0.86,8.06,1.05s5.07,0.29,7.7,0.29c2.63,0,5.22-0.1,7.77-0.29s5.25-0.54,8.09-1.05s5.47-1.14,7.88-1.92
		s4.73-1.82,6.97-3.14c2.24-1.32,4.16-2.81,5.75-4.44c3.47-3.71,5.2-8.38,5.2-14.02c0-15.66-13.92-23.49-41.77-23.49
		c-22.69,0-36.37,5.3-41.05,15.9c-1.01,2.31-1.52,4.88-1.52,7.7s0.51,5.42,1.52,7.8s2.35,4.41,4.01,6.07s3.67,3.16,6.04,4.48
		c2.36,1.33,4.79,2.37,7.3,3.14S38.87,1158.09,41.73,1158.6z"/>
	<path class="st0" d="M111.79,1080.8H2.31v-17.27h92.86v-45.24h16.62V1080.8z"/>
	<path class="st0" d="M68.36,1015.04c-3.66,0.48-7.3,0.72-10.91,0.72s-7.25-0.22-10.91-0.65s-7.38-1.16-11.17-2.17
		c-3.78-1.01-7.36-2.26-10.73-3.76c-3.37-1.49-6.56-3.38-9.58-5.67c-3.01-2.29-5.6-4.85-7.77-7.7c-4.67-6.12-7.01-13.56-7.01-22.33
		c0-12.04,4.96-21.68,14.89-28.91c10.79-7.8,24.88-11.71,42.28-11.71c17.73,0,31.7,3.76,41.91,11.27
		c9.54,7.03,14.31,16.81,14.31,29.34c0,11.9-4.79,21.66-14.38,29.27C91.2,1009.21,80.89,1013.31,68.36,1015.04z M41.73,997.16
		c2.87,0.51,5.55,0.86,8.06,1.05c2.5,0.19,5.07,0.29,7.7,0.29c2.63,0,5.22-0.1,7.77-0.29c2.55-0.19,5.25-0.54,8.09-1.05
		s5.47-1.14,7.88-1.92c2.41-0.77,4.73-1.82,6.97-3.14c2.24-1.32,4.16-2.81,5.75-4.44c3.47-3.71,5.2-8.38,5.2-14.02
		c0-15.66-13.92-23.49-41.77-23.49c-22.69,0-36.37,5.3-41.05,15.9c-1.01,2.31-1.52,4.88-1.52,7.7s0.51,5.42,1.52,7.8
		s2.35,4.41,4.01,6.07s3.67,3.16,6.04,4.48c2.36,1.33,4.79,2.37,7.3,3.14C36.18,996.01,38.87,996.65,41.73,997.16z"/>
	<path class="st0" d="M37,861.12c-14.79,3.13-22.19,9.68-22.19,19.66c0,10.55,6,17.95,17.99,22.19c6.7,2.36,14.55,3.54,23.56,3.54
		c21.68,0,35.17-4.6,40.47-13.8c1.54-2.7,2.31-5.56,2.31-8.6s-0.3-5.6-0.9-7.7c-0.6-2.1-1.37-3.85-2.31-5.28
		c-0.94-1.42-2.15-2.66-3.65-3.72c-1.49-1.06-2.99-1.88-4.48-2.46s-3.28-1.04-5.35-1.37c-3.13-0.53-6.91-0.84-11.35-0.94v21.03
		h-14.6v-38.01h55.28v14.02h-8.67c3.76,3.08,6.43,6.46,8.02,10.12c1.69,3.95,2.53,8.5,2.53,13.66c0,5.16-1.05,9.88-3.14,14.16
		c-2.1,4.29-4.97,8-8.63,11.13c-3.66,3.13-7.93,5.85-12.79,8.17c-9.68,4.58-20.64,6.87-32.88,6.87c-11.71,0-22.21-2.19-31.51-6.58
		c-10.26-4.87-17.34-11.59-21.25-20.16c-2.12-4.67-3.18-9.17-3.18-13.48c0-4.31,0.3-7.76,0.9-10.33c0.6-2.58,1.69-5.2,3.25-7.88
		c1.57-2.67,3.6-5.09,6.11-7.26c5.44-4.77,13.37-8.67,23.78-11.71L37,861.12z"/>
	<path class="st0" d="M61.14,792.9h50.66v17.2H61.14l-58.82,31.8v-18.21l41.41-22.19L2.31,779.31V761.1L61.14,792.9z"/>
	<path class="st0" d="M82.09,721.21c-13.06,0-24.4-7.08-34.04-21.25c-2.99,1.59-7,3-12.03,4.23c-5.03,1.23-9.36,1.84-12.97,1.84
		s-7.2-1.01-10.77-3.04s-6.5-4.82-8.82-8.38C1.16,691.05,0,687.14,0,682.87s1.12-8.23,3.36-11.89c2.24-3.66,5.1-6.44,8.56-8.35
		c3.47-1.9,6.9-2.85,10.3-2.85s6.38,0.43,8.96,1.3c2.58,0.87,4.78,1.94,6.61,3.22c1.83,1.28,3.7,3.01,5.6,5.2
		c1.9,2.19,3.46,4.23,4.66,6.11l4.34,7.08c4.91-3.08,10.67-7.29,17.27-12.61c6.6-5.32,10.82-9.02,12.65-11.09
		c-6.5-3.28-14.38-4.75-23.63-4.41v-15.46c12.62,0,23.82,3.66,33.6,10.98c2.02-3.08,2.94-7.83,2.75-14.24
		c-0.05-1.59-0.07-2.72-0.07-3.4h16.84c0,7.61-0.25,12.21-0.76,13.8s-1.05,3.08-1.62,4.48c-1.01,2.46-2.89,5.06-5.64,7.8
		c3.66,3.76,6.13,8.01,7.41,12.75c1.28,4.75,1.92,10.12,1.92,16.12s-1.4,11.6-4.19,16.8s-6.58,9.33-11.35,12.39
		C92.79,719.68,87.63,721.21,82.09,721.21z M24.79,690.57c7.03,0,12.24-0.7,15.61-2.1c-5.11-9.88-10.65-14.81-16.62-14.81
		c-2.6,0-5,0.74-7.19,2.2c-2.19,1.47-3.29,3.52-3.29,6.14c0,2.63,1.08,4.71,3.25,6.25C18.72,689.8,21.46,690.57,24.79,690.57z
		 M67.42,701.77c3.08,2.65,7.11,3.97,12.07,3.97s9.46-1.61,13.48-4.84c4.02-3.23,6.04-7.33,6.04-12.32s-0.48-8.85-1.45-11.6
		s-2.65-5.56-5.06-8.46c-1.88,1.73-4.48,3.88-7.8,6.43l-24.93,18.5C63.52,697.85,66.07,700.62,67.42,701.77z"/>
	<path class="st0" d="M37.65,563.17h74.14v16.91H2.31v-23.41l75.66-21.03v-0.72L2.31,513.88v-23.41h109.48v16.98H37.65v0.65
		l74.14,20.52v13.3l-74.14,20.52V563.17z"/>
	<path class="st0" d="M111.79,472.76H2.31v-62.65h14.53v45.38h30.28v-31.58h14.6v31.58h34.54v-48.13h15.54V472.76z"/>
	<path class="st0" d="M111.79,394.79H2.31v-25.8c0-26.4,10.62-42.35,31.87-47.84c6.79-1.73,13.95-2.6,21.46-2.6
		s13.85,0.52,19.01,1.55c5.15,1.04,10.04,2.81,14.67,5.31c4.62,2.51,8.58,5.64,11.85,9.39c7.08,8.24,10.62,19.63,10.62,34.18V394.79
		z M97.27,377.52v-10.41c0-10.07-3.64-17.83-10.91-23.27c-7.23-5.35-16.74-8.02-28.54-8.02c-22.5,0-35.75,7.2-39.75,21.61
		c-0.82,2.94-1.23,6.17-1.23,9.68v10.41H97.27z"/>
	<path class="st0" d="M111.79,307.71H2.31v-17.27h109.48V307.71z"/>
	<path class="st0" d="M70.6,277.57c-4.53,0.77-9.11,1.16-13.73,1.16s-9.18-0.36-13.66-1.08s-8.85-1.79-13.12-3.22
		c-4.26-1.42-8.19-3.28-11.78-5.56c-3.59-2.29-6.73-4.9-9.43-7.84c-5.73-6.26-8.6-14.04-8.6-23.34c0-11.8,5.9-21.12,17.71-27.97
		c5.73-3.32,11.63-5.56,17.71-6.72h0.07l4.05,15.03c-5.16,0.77-8.93,1.69-11.31,2.75c-2.38,1.06-4.38,2.12-6,3.18
		c-1.61,1.06-2.95,2.22-4.01,3.47c-2.46,2.99-3.69,6.37-3.69,10.15c0,3.78,0.86,7.02,2.56,9.72c1.71,2.7,3.95,4.91,6.72,6.65
		c2.77,1.73,6.01,3.18,9.72,4.34c6.84,2.12,14.55,3.18,23.12,3.18c22.74,0,36.33-5.4,40.76-16.19c0.96-2.31,1.45-4.77,1.45-7.37
		s-0.34-4.93-1.01-6.97c-0.67-2.05-1.55-3.77-2.64-5.17c-1.08-1.4-2.37-2.64-3.87-3.72s-3-1.95-4.52-2.6s-3.07-1.17-4.66-1.55
		c-2.79-0.72-5.4-1.08-7.8-1.08l2.24-16.12c9.25,2.17,17.27,5.95,24.06,11.35c8.48,6.84,12.72,15.44,12.72,25.8
		c0,12.72-6.05,22.96-18.14,30.71C88.74,272.92,80.43,275.93,70.6,277.57z"/>
	<path class="st0" d="M111.79,190.64H2.31v-17.27h109.48V190.64z"/>
	<path class="st0" d="M69.52,99.94H2.31v-17.2h109.48v13.73L27.82,140.7h83.97v17.2H2.31v-22.26L69.52,99.94z"/>
	<path class="st0" d="M111.79,65.4H2.31V2.75h14.53v45.38h30.28V16.55h14.6v31.58h34.54V0h15.54V65.4z"/>
</g>
</svg>
