<?xml version="1.0" encoding="utf-8"?>
<!-- Generator: Adobe Illustrator 25.0.0, SVG Export Plug-In . SVG Version: 6.00 Build 0)  -->
<svg version="1.1" id="Layer_1" xmlns="http://www.w3.org/2000/svg" xmlns:xlink="http://www.w3.org/1999/xlink" x="0px" y="0px"
	 viewBox="0 0 45.8 39.67" style="enable-background:new 0 0 45.8 39.67;" xml:space="preserve">
<style type="text/css">
	.st0{fill:#3EA481;}
	.st1{fill:#FFFFFF;}
</style>
<g>
	<polygon class="st0" points="34.35,0 11.45,0 0,19.83 11.45,39.67 34.35,39.67 45.8,19.83 	"/>
</g>
<g>
	<path class="st1" d="M18.94,16.59c-0.51-2.4-1.57-3.6-3.19-3.6c-1.71,0-2.91,0.97-3.6,2.92c-0.38,1.09-0.57,2.36-0.57,3.82
		c0,3.52,0.75,5.7,2.24,6.56c0.44,0.25,0.9,0.38,1.39,0.38s0.91-0.05,1.25-0.15s0.62-0.22,0.86-0.38s0.43-0.35,0.6-0.59
		s0.3-0.48,0.4-0.73s0.17-0.53,0.22-0.87c0.09-0.51,0.14-1.12,0.15-1.84h-3.41v-2.37h6.16v8.97h-2.27v-1.41
		c-0.5,0.61-1.05,1.04-1.64,1.3c-0.64,0.27-1.38,0.41-2.21,0.41s-1.6-0.17-2.3-0.51s-1.3-0.81-1.8-1.4s-0.95-1.29-1.32-2.07
		c-0.74-1.57-1.11-3.35-1.11-5.33c0-1.9,0.36-3.6,1.07-5.11c0.79-1.66,1.88-2.81,3.27-3.45c0.76-0.34,1.49-0.52,2.19-0.52
		s1.26,0.05,1.68,0.15s0.84,0.27,1.28,0.53s0.83,0.58,1.18,0.99c0.77,0.88,1.41,2.17,1.9,3.86L18.94,16.59z"/>
	<path class="st1" d="M23.7,21.68c-0.08-0.59-0.12-1.18-0.12-1.77s0.04-1.18,0.11-1.77s0.19-1.2,0.35-1.81
		c0.16-0.61,0.37-1.19,0.61-1.74s0.55-1.06,0.92-1.55s0.79-0.91,1.25-1.26c0.99-0.76,2.2-1.14,3.62-1.14c1.95,0,3.52,0.8,4.69,2.41
		c1.27,1.75,1.9,4.04,1.9,6.86c0,2.88-0.61,5.14-1.83,6.8c-1.14,1.55-2.73,2.32-4.76,2.32c-1.93,0-3.51-0.78-4.75-2.33
		C24.64,25.38,23.98,23.71,23.7,21.68z M26.6,17.36c-0.08,0.46-0.14,0.9-0.17,1.31s-0.05,0.82-0.05,1.25s0.02,0.85,0.05,1.26
		s0.09,0.85,0.17,1.31s0.19,0.89,0.31,1.28s0.29,0.77,0.51,1.13s0.46,0.67,0.72,0.93c0.6,0.56,1.36,0.84,2.27,0.84
		c2.54,0,3.81-2.26,3.81-6.77c0-3.68-0.86-5.9-2.58-6.66c-0.38-0.16-0.79-0.25-1.25-0.25s-0.88,0.08-1.27,0.25s-0.71,0.38-0.98,0.65
		s-0.51,0.6-0.73,0.98s-0.38,0.78-0.51,1.18C26.78,16.46,26.68,16.89,26.6,17.36z"/>
</g>
</svg>
