<?xml version="1.0" encoding="utf-8"?>
<!-- Generator: Adobe Illustrator 25.0.1, SVG Export Plug-In . SVG Version: 6.00 Build 0)  -->
<svg version="1.1" id="Layer_1" xmlns="http://www.w3.org/2000/svg" xmlns:xlink="http://www.w3.org/1999/xlink" x="0px" y="0px"
	 viewBox="0 0 257.5 223" style="enable-background:new 0 0 257.5 223;" xml:space="preserve">
<style type="text/css">
	.st0{fill:#FCEBC1;stroke:#5E795D;stroke-width:20;stroke-miterlimit:10;}
</style>
<polygon class="st0" points="187.4,9.6 70.2,9.6 11.6,111.1 70.2,212.6 187.4,212.6 246,111.1 "/>
<g>
	<path d="M75.3,126.3V96.7h16.9v3.9H80v8.2h8.5v3.9H80v9.3h13v4.2H75.3z"/>
	<path d="M111.9,114.9V96.7h4.6v29.6h-3.7l-12-22.7v22.7h-4.6V96.7h6L111.9,114.9z"/>
	<path d="M118.9,100.6v-3.9h20.6v3.9h-8v25.7h-4.7v-25.7H118.9z"/>
	<path d="M142,126.3V96.7h16.9v3.9h-12.3v8.2h8.5v3.9h-8.5v9.3h13v4.2H142z"/>
	<path d="M163,126.3V96.7h9.9c4.6,0,7.5,1.6,8.7,4.9c0.4,1,0.5,1.9,0.5,2.9s-0.1,1.9-0.3,2.8c-0.2,0.8-0.6,1.6-1,2.3
		c-1,1.6-2.4,2.5-4.3,2.9l5.5,13.7h-4.8l-5.1-12.8h-4.4v12.8H163z M167.7,109.5h4.9c1.4,0,2.5-0.4,3.4-1.1c1-0.8,1.4-2,1.4-3.7
		c0-2.7-2.2-4.1-6.5-4.1h-3.3V109.5z"/>
</g>
</svg>
