<?xml version="1.0" encoding="utf-8"?>
<!-- Generator: Adobe Illustrator 25.0.0, SVG Export Plug-In . SVG Version: 6.00 Build 0)  -->
<svg version="1.1" id="Layer_1" xmlns="http://www.w3.org/2000/svg" xmlns:xlink="http://www.w3.org/1999/xlink" x="0px" y="0px"
	 viewBox="0 0 330 294" style="enable-background:new 0 0 330 294;" xml:space="preserve">
<style type="text/css">
	.st0{fill:#EC665E;}
	.st1{fill:#E9A912;}
	.st2{enable-background:new    ;}
	.st3{fill:#FFFFFF;}
</style>
<g>
	<polygon class="st0" points="88.35,284 11.46,147 88.35,10 241.64,10 318.53,147 241.64,284 	"/>
	<path class="st1" d="M235.79,20l71.28,127l-71.28,127H94.21L22.93,147L94.21,20H235.79 M247.5,0h-165L0,147l82.5,147h165L330,147
		L247.5,0L247.5,0z"/>
</g>
<g class="st2">
	<path class="st3" d="M85.09,138.04v-28.85h9.27c2.72,0,4.83,0.67,6.34,2c1.46,1.28,2.19,2.91,2.19,4.89c0,3.26-1.18,5.35-3.54,6.25
		c-0.41,0.17-0.88,0.31-1.43,0.44c1.6,0.3,2.92,1.07,3.96,2.3c1.1,1.31,1.66,3.02,1.66,5.14c0,3.02-0.95,5.16-2.86,6.42
		c-1.46,0.94-3.52,1.41-6.17,1.41H85.09z M89.64,121.13h4.68c1.28,0,2.39-0.5,3.33-1.49c0.74-0.76,1.1-1.77,1.1-3.03
		c0-2.4-1.48-3.6-4.44-3.6h-4.68V121.13z M89.64,134.22h4.88c1.78,0,3.03-0.42,3.77-1.26c0.62-0.7,0.93-1.73,0.93-3.1
		c0-1.13-0.43-2.2-1.28-3.2c-0.9-1.07-2.04-1.6-3.43-1.6h-4.88V134.22z"/>
	<path class="st3" d="M106.95,129.51v-20.32h4.55v19.23c0,3.21,1.03,5.21,3.1,5.98c0.53,0.2,1.13,0.3,1.79,0.3s1.26-0.09,1.79-0.27
		c0.53-0.18,0.96-0.4,1.29-0.67s0.62-0.61,0.86-1.02c0.24-0.41,0.42-0.79,0.53-1.13c0.11-0.34,0.21-0.75,0.29-1.22
		c0.08-0.61,0.11-1.27,0.11-1.98v-19.23h4.65v20.32c0,2.91-0.96,5.21-2.88,6.91c-1.59,1.41-3.8,2.11-6.63,2.11
		c-4.3,0-7.16-1.63-8.57-4.89C107.25,132.3,106.95,130.92,106.95,129.51z"/>
	<path class="st3" d="M141.05,124.69v13.35h-4.53v-13.35l-8.38-15.5h4.8l5.85,10.91l5.85-10.91h4.8L141.05,124.69z"/>
	<path class="st3" d="M157.03,113.02v-3.83h20.13v3.83h-7.79v25.02h-4.55v-25.02H157.03z"/>
	<path class="st3" d="M177.54,126.6c-0.13-0.96-0.19-1.92-0.19-2.88s0.06-1.91,0.17-2.88s0.3-1.95,0.57-2.94
		c0.27-1,0.6-1.94,0.99-2.83s0.89-1.73,1.5-2.52c0.6-0.79,1.28-1.48,2.03-2.05c1.61-1.23,3.57-1.85,5.88-1.85
		c3.17,0,5.71,1.31,7.62,3.92c2.06,2.84,3.08,6.56,3.08,11.14c0,4.67-0.99,8.35-2.97,11.04c-1.85,2.51-4.43,3.77-7.73,3.77
		c-3.14,0-5.71-1.26-7.71-3.79C179.08,132.62,178,129.9,177.54,126.6z M182.25,119.58c-0.13,0.75-0.23,1.46-0.28,2.12
		s-0.08,1.34-0.08,2.03c0,0.69,0.03,1.37,0.08,2.05s0.14,1.38,0.28,2.13c0.13,0.75,0.3,1.44,0.5,2.08s0.48,1.25,0.83,1.84
		c0.35,0.59,0.74,1.09,1.17,1.51c0.98,0.91,2.21,1.37,3.69,1.37c4.13,0,6.19-3.67,6.19-11.01c0-5.98-1.4-9.58-4.19-10.82
		c-0.61-0.27-1.29-0.4-2.03-0.4c-0.74,0-1.43,0.13-2.06,0.4c-0.63,0.27-1.16,0.62-1.6,1.06c-0.44,0.44-0.83,0.97-1.18,1.59
		c-0.35,0.62-0.62,1.26-0.83,1.92C182.55,118.12,182.39,118.83,182.25,119.58z"/>
	<path class="st3" d="M202.75,129.51v-20.32h4.55v19.23c0,3.21,1.04,5.21,3.1,5.98c0.53,0.2,1.13,0.3,1.79,0.3s1.26-0.09,1.79-0.27
		c0.53-0.18,0.96-0.4,1.29-0.67s0.62-0.61,0.86-1.02c0.24-0.41,0.42-0.79,0.53-1.13c0.11-0.34,0.21-0.75,0.29-1.22
		c0.08-0.61,0.11-1.27,0.11-1.98v-19.23h4.65v20.32c0,2.91-0.96,5.21-2.88,6.91c-1.59,1.41-3.8,2.11-6.63,2.11
		c-4.3,0-7.16-1.63-8.57-4.89C203.05,132.3,202.75,130.92,202.75,129.51z"/>
	<path class="st3" d="M226.25,138.04v-28.85h9.69c4.46,0,7.27,1.59,8.46,4.78c0.34,0.93,0.51,1.88,0.51,2.88s-0.11,1.89-0.33,2.71
		c-0.22,0.81-0.55,1.57-0.98,2.27c-0.95,1.52-2.36,2.48-4.21,2.88l5.33,13.35h-4.67l-4.99-12.51h-4.27v12.51H226.25z M230.8,121.69
		h4.82c1.33,0,2.44-0.36,3.33-1.09c0.94-0.77,1.41-1.96,1.41-3.56c0-2.68-2.13-4.02-6.38-4.02h-3.18V121.69z"/>
</g>
<g class="st2">
	<path class="st3" d="M103.77,159.82v-3.83h20.13v3.83h-7.79v25.02h-4.55v-25.02H103.77z"/>
	<path class="st3" d="M125.84,184.84v-28.85h4.55v28.85H125.84z"/>
	<path class="st3" d="M133.78,173.99c-0.2-1.19-0.3-2.4-0.3-3.62s0.1-2.42,0.29-3.6c0.19-1.18,0.47-2.33,0.85-3.46
		c0.37-1.12,0.86-2.16,1.47-3.1c0.6-0.95,1.29-1.77,2.07-2.49c1.65-1.51,3.7-2.27,6.15-2.27c3.11,0,5.57,1.55,7.37,4.67
		c0.88,1.51,1.47,3.07,1.77,4.67v0.02l-3.96,1.07c-0.2-1.36-0.44-2.35-0.72-2.98c-0.28-0.63-0.56-1.16-0.84-1.58
		c-0.28-0.43-0.58-0.78-0.91-1.06c-0.79-0.65-1.68-0.97-2.68-0.97c-1,0-1.85,0.23-2.56,0.68c-0.71,0.45-1.29,1.04-1.75,1.77
		c-0.46,0.73-0.84,1.58-1.14,2.56c-0.56,1.8-0.84,3.83-0.84,6.09c0,5.99,1.42,9.57,4.27,10.74c0.61,0.25,1.26,0.38,1.94,0.38
		s1.3-0.09,1.84-0.27c0.54-0.18,0.99-0.41,1.36-0.69c0.37-0.29,0.7-0.62,0.98-1.02c0.29-0.39,0.51-0.79,0.69-1.19
		c0.17-0.4,0.31-0.81,0.41-1.23c0.19-0.74,0.29-1.42,0.29-2.06l4.25,0.59c-0.57,2.44-1.57,4.55-2.99,6.34
		c-1.8,2.23-4.07,3.35-6.8,3.35c-3.35,0-6.05-1.59-8.09-4.78C135.01,178.77,134.22,176.58,133.78,173.99z"/>
	<path class="st3" d="M157.15,184.84v-28.85h4.59v12.83l9.62-12.83h4.8l-8.55,11.25l9.08,17.6h-5.01l-6.99-13.77l-2.95,3.88v9.88
		H157.15z"/>
	<path class="st3" d="M179.07,184.84v-28.85h16.51v3.83h-11.96v7.98h8.32v3.85h-8.32v9.1h12.68v4.09H179.07z"/>
	<path class="st3" d="M197.31,159.82v-3.83h20.13v3.83h-7.79v25.02h-4.55v-25.02H197.31z"/>
	<path class="st3" d="M217.95,177.46l3.66-1.2c0.01,0,0.04,0.09,0.08,0.29s0.1,0.44,0.2,0.75c0.09,0.31,0.23,0.65,0.4,1.03
		c0.17,0.38,0.42,0.75,0.75,1.12c0.33,0.37,0.72,0.71,1.16,1.02c0.99,0.7,2.22,1.05,3.69,1.05s2.55-0.36,3.25-1.09
		c0.69-0.72,1.04-1.58,1.04-2.58c0-1-0.1-1.8-0.3-2.42c-0.2-0.62-0.56-1.15-1.07-1.61c-0.85-0.76-2.32-1.45-4.42-2.06
		c-3.69-1.08-6.07-2.75-7.12-5.01c-0.55-1.18-0.82-2.57-0.82-4.17c0-1.34,0.48-2.66,1.43-3.94c1.66-2.12,4.02-3.18,7.08-3.18
		c2.42,0,4.41,0.73,5.96,2.19c1.1,1.03,1.93,2.32,2.48,3.88l0.36,1.01c0.11,0.3,0.19,0.5,0.23,0.59l-3.71,1.31
		c-0.84-2.67-2.15-4.31-3.92-4.93c-0.44-0.15-0.91-0.23-1.39-0.23c-2.64,0-3.96,1.36-3.96,4.08c0,1.24,0.37,2.2,1.1,2.86
		c0.61,0.57,1.41,1.02,2.4,1.35l0.91,0.3c0.52,0.18,0.81,0.27,0.86,0.29l0.84,0.29c2.17,0.76,3.64,1.44,4.4,2.02
		c1.12,0.86,1.85,1.66,2.19,2.38c0.69,1.49,1.03,3.05,1.03,4.7c0,1.29-0.37,2.61-1.1,3.94c-0.99,1.79-2.56,2.96-4.7,3.52
		c-0.83,0.21-1.73,0.32-2.7,0.32s-1.9-0.09-2.75-0.27c-0.86-0.18-1.6-0.42-2.22-0.72s-1.19-0.65-1.71-1.05
		c-0.52-0.39-0.96-0.81-1.31-1.25c-0.36-0.44-0.67-0.88-0.93-1.31c-0.27-0.44-0.48-0.85-0.64-1.25c-0.16-0.39-0.29-0.74-0.39-1.05
		s-0.17-0.55-0.22-0.72C217.99,177.54,217.97,177.46,217.95,177.46z"/>
</g>
</svg>
