<?xml version="1.0" encoding="utf-8"?>
<!-- Generator: Adobe Illustrator 25.0.0, SVG Export Plug-In . SVG Version: 6.00 Build 0)  -->
<svg version="1.1" id="Layer_1" xmlns="http://www.w3.org/2000/svg" xmlns:xlink="http://www.w3.org/1999/xlink" x="0px" y="0px"
	 viewBox="0 0 113.38 767.61" style="enable-background:new 0 0 113.38 767.61;" xml:space="preserve">
<g>
	<path d="M70.31,766.45c-4.53,0.77-9.11,1.16-13.73,1.16s-9.18-0.36-13.66-1.08s-8.85-1.79-13.12-3.22
		c-4.26-1.42-8.19-3.28-11.78-5.56c-3.59-2.29-6.73-4.9-9.43-7.84C2.87,743.64,0,735.86,0,726.56c0-11.8,5.9-21.12,17.71-27.97
		c5.73-3.32,11.63-5.56,17.71-6.72h0.07l4.05,15.03c-5.16,0.77-8.92,1.69-11.31,2.75c-2.38,1.06-4.38,2.12-6,3.18
		c-1.61,1.06-2.95,2.22-4.01,3.47c-2.46,2.99-3.69,6.37-3.69,10.15c0,3.78,0.86,7.02,2.57,9.72c1.71,2.7,3.95,4.91,6.72,6.65
		s6.01,3.18,9.72,4.34c6.84,2.12,14.55,3.18,23.12,3.18c22.74,0,36.33-5.4,40.76-16.19c0.96-2.31,1.45-4.77,1.45-7.37
		s-0.34-4.93-1.01-6.97c-0.67-2.05-1.55-3.77-2.64-5.17c-1.08-1.4-2.37-2.64-3.87-3.72s-3-1.95-4.52-2.6s-3.07-1.17-4.66-1.55
		c-2.79-0.72-5.4-1.08-7.8-1.08l2.24-16.12c9.25,2.17,17.27,5.95,24.06,11.35c8.48,6.84,12.72,15.44,12.72,25.8
		c0,12.72-6.05,22.96-18.14,30.71C88.45,761.8,80.14,764.81,70.31,766.45z"/>
	<path d="M68.07,681.39c-3.66,0.48-7.3,0.72-10.91,0.72s-7.25-0.22-10.91-0.65s-7.38-1.16-11.17-2.17s-7.36-2.26-10.73-3.76
		c-3.37-1.49-6.56-3.38-9.58-5.67c-3.01-2.29-5.6-4.85-7.77-7.7C2.34,656.05,0,648.61,0,639.84c0-12.04,4.96-21.68,14.89-28.91
		c10.79-7.8,24.88-11.71,42.28-11.71c17.73,0,31.7,3.76,41.91,11.27c9.54,7.03,14.31,16.81,14.31,29.34
		c0,11.9-4.79,21.66-14.38,29.27C90.91,675.56,80.6,679.66,68.07,681.39z M41.44,663.51c2.87,0.51,5.55,0.86,8.06,1.05
		c2.5,0.19,5.07,0.29,7.7,0.29s5.21-0.1,7.77-0.29c2.55-0.19,5.25-0.54,8.09-1.05s5.47-1.14,7.88-1.92
		c2.41-0.77,4.73-1.82,6.97-3.14c2.24-1.32,4.16-2.81,5.75-4.44c3.47-3.71,5.2-8.38,5.2-14.02c0-15.66-13.92-23.49-41.77-23.49
		c-22.69,0-36.37,5.3-41.05,15.9c-1.01,2.31-1.52,4.88-1.52,7.7s0.51,5.42,1.52,7.8s2.35,4.41,4.01,6.07s3.67,3.16,6.03,4.48
		c2.36,1.33,4.79,2.37,7.3,3.14C35.89,662.36,38.58,663,41.44,663.51z"/>
	<path d="M69.23,528.33H2.02v-17.2h109.48v13.73l-83.97,44.23h83.97v17.2H2.02v-22.26L69.23,528.33z"/>
	<path d="M16.55,502.54H2.02v-76.38h14.53v29.56h94.96v17.27H16.55V502.54z"/>
	<path d="M111.51,434.46L2.02,403.24v-18.93l109.48-31.22v16.69l-31.72,9.03v28.69l31.72,9.03V434.46z M65.26,403.39v-20.45
		l-35.34,10.19L65.26,403.39z"/>
	<path d="M70.31,349.84c-4.53,0.77-9.11,1.16-13.73,1.16s-9.18-0.36-13.66-1.08s-8.85-1.79-13.12-3.22
		c-4.26-1.42-8.19-3.28-11.78-5.56c-3.59-2.29-6.73-4.9-9.43-7.84C2.87,327.03,0,319.25,0,309.95c0-11.8,5.9-21.12,17.71-27.97
		c5.73-3.32,11.63-5.56,17.71-6.72h0.07l4.05,15.03c-5.16,0.77-8.92,1.69-11.31,2.75c-2.38,1.06-4.38,2.12-6,3.18
		c-1.61,1.06-2.95,2.22-4.01,3.47c-2.46,2.99-3.69,6.37-3.69,10.15c0,3.78,0.86,7.02,2.57,9.72c1.71,2.7,3.95,4.91,6.72,6.65
		s6.01,3.18,9.72,4.34c6.84,2.12,14.55,3.18,23.12,3.18c22.74,0,36.33-5.4,40.76-16.19c0.96-2.31,1.45-4.77,1.45-7.37
		s-0.34-4.93-1.01-6.97c-0.67-2.05-1.55-3.77-2.64-5.17c-1.08-1.4-2.37-2.64-3.87-3.72s-3-1.95-4.52-2.6s-3.07-1.17-4.66-1.55
		c-2.79-0.72-5.4-1.08-7.8-1.08l2.24-16.12c9.25,2.17,17.27,5.95,24.06,11.35c8.48,6.84,12.72,15.44,12.72,25.8
		c0,12.72-6.05,22.96-18.14,30.71C88.45,345.19,80.14,348.2,70.31,349.84z"/>
	<path d="M16.55,271.65H2.02v-76.38h14.53v29.56h94.96v17.27H16.55V271.65z"/>
	<path d="M79.13,153.28H2.02V136h72.99c12.19,0,19.75-3.93,22.69-11.78c0.77-2.02,1.16-4.29,1.16-6.79c0-2.5-0.34-4.77-1.01-6.79
		s-1.52-3.66-2.53-4.91c-1.01-1.25-2.3-2.34-3.87-3.25c-1.57-0.92-3-1.59-4.3-2.02s-2.84-0.79-4.62-1.08
		c-2.31-0.29-4.82-0.43-7.52-0.43H2.02V81.3h77.11c11.03,0,19.78,3.64,26.23,10.91c5.35,6.02,8.02,14.41,8.02,25.15
		c0,16.33-6.19,27.17-18.57,32.52C89.71,152.14,84.48,153.28,79.13,153.28z"/>
	<path d="M83.47,71.25l-4.55-13.88c0-0.05,0.36-0.14,1.08-0.29s1.67-0.4,2.85-0.76s2.48-0.87,3.9-1.52s2.84-1.6,4.26-2.85
		c1.42-1.25,2.71-2.72,3.87-4.41c2.65-3.76,3.97-8.43,3.97-14.02c0-5.59-1.37-9.7-4.12-12.32c-2.75-2.62-6.01-3.94-9.79-3.94
		s-6.84,0.39-9.18,1.16c-2.34,0.77-4.37,2.12-6.11,4.05c-2.89,3.23-5.49,8.82-7.8,16.77c-4.09,14.02-10.43,23.03-19.01,27.03
		c-4.48,2.07-9.76,3.11-15.83,3.11c-5.11,0-10.09-1.81-14.96-5.42C4.02,57.64,0,48.68,0,37.07c0-9.2,2.77-16.74,8.31-22.62
		c3.9-4.19,8.82-7.32,14.74-9.39l3.83-1.37c1.16-0.43,1.9-0.72,2.24-0.87l4.99,14.09c-10.12,3.18-16.36,8.14-18.72,14.89
		c-0.58,1.69-0.87,3.45-0.87,5.28c0,10.02,5.16,15.03,15.46,15.03c4.72,0,8.33-1.4,10.84-4.19c2.17-2.31,3.88-5.35,5.13-9.11
		l1.16-3.47c0.67-1.97,1.04-3.06,1.08-3.25l1.08-3.18c2.89-8.24,5.44-13.8,7.66-16.69c3.28-4.24,6.29-7.01,9.03-8.31
		C71.62,1.3,77.57,0,83.83,0c4.91,0,9.9,1.4,14.96,4.19c6.79,3.76,11.25,9.71,13.37,17.85c0.82,3.13,1.23,6.55,1.23,10.26
		c0,3.71-0.34,7.19-1.01,10.44c-0.68,3.25-1.59,6.06-2.75,8.42c-1.16,2.36-2.48,4.53-3.97,6.5c-1.49,1.98-3.07,3.64-4.73,4.99
		c-1.66,1.35-3.32,2.53-4.99,3.54s-3.24,1.82-4.73,2.42c-1.49,0.6-2.82,1.1-3.97,1.48c-1.16,0.39-2.07,0.66-2.75,0.83
		C83.8,71.1,83.47,71.21,83.47,71.25z"/>
</g>
</svg>
