<?xml version="1.0" encoding="utf-8"?>
<!-- Generator: Adobe Illustrator 25.0.0, SVG Export Plug-In . SVG Version: 6.00 Build 0)  -->
<svg version="1.1" id="Layer_1" xmlns="http://www.w3.org/2000/svg" xmlns:xlink="http://www.w3.org/1999/xlink" x="0px" y="0px"
	 viewBox="0 0 330 294" style="enable-background:new 0 0 330 294;" xml:space="preserve">
<style type="text/css">
	.st0{fill:#F5918B;}
	.st1{fill:#EC665E;}
	.st2{enable-background:new    ;}
</style>
<g>
	<polygon class="st0" points="88.35,284 11.46,147 88.35,10 241.64,10 318.53,147 241.64,284 	"/>
	<path class="st1" d="M235.79,20l71.28,127l-71.28,127H94.21L22.93,147L94.21,20H235.79 M247.5,0h-165L0,147l82.5,147h165L330,147
		L247.5,0L247.5,0z"/>
</g>
<g class="st2">
	<path d="M64.17,150.59c-0.2-1.19-0.3-2.4-0.3-3.62s0.1-2.42,0.29-3.6c0.19-1.18,0.47-2.33,0.85-3.46c0.37-1.12,0.86-2.16,1.47-3.1
		c0.6-0.95,1.29-1.77,2.07-2.49c1.65-1.51,3.7-2.27,6.15-2.27c3.11,0,5.57,1.55,7.37,4.67c0.88,1.51,1.47,3.07,1.77,4.67v0.02
		l-3.96,1.07c-0.2-1.36-0.44-2.35-0.72-2.98c-0.28-0.63-0.56-1.16-0.84-1.58c-0.28-0.43-0.58-0.78-0.91-1.06
		c-0.79-0.65-1.68-0.97-2.68-0.97c-1,0-1.85,0.23-2.56,0.68c-0.71,0.45-1.29,1.04-1.75,1.77c-0.46,0.73-0.84,1.58-1.14,2.56
		c-0.56,1.8-0.84,3.83-0.84,6.09c0,5.99,1.42,9.57,4.27,10.74c0.61,0.25,1.26,0.38,1.94,0.38s1.3-0.09,1.84-0.27
		c0.54-0.18,0.99-0.41,1.36-0.69c0.37-0.29,0.7-0.62,0.98-1.02c0.29-0.39,0.51-0.79,0.69-1.19c0.17-0.4,0.31-0.81,0.41-1.23
		c0.19-0.74,0.29-1.42,0.29-2.06l4.25,0.59c-0.57,2.44-1.57,4.55-2.99,6.34c-1.8,2.23-4.07,3.35-6.8,3.35
		c-3.35,0-6.05-1.59-8.09-4.78C65.39,155.37,64.6,153.18,64.17,150.59z"/>
	<path d="M86.58,150c-0.13-0.96-0.19-1.92-0.19-2.88s0.06-1.91,0.17-2.88s0.3-1.95,0.57-2.94c0.27-1,0.6-1.94,0.99-2.83
		s0.89-1.73,1.5-2.52c0.6-0.79,1.28-1.48,2.03-2.05c1.61-1.23,3.57-1.85,5.88-1.85c3.17,0,5.71,1.31,7.62,3.92
		c2.06,2.84,3.08,6.56,3.08,11.14c0,4.67-0.99,8.35-2.97,11.04c-1.85,2.51-4.43,3.77-7.73,3.77c-3.14,0-5.71-1.26-7.71-3.79
		C88.12,156.02,87.04,153.3,86.58,150z M91.29,142.98c-0.13,0.75-0.23,1.46-0.28,2.12s-0.08,1.34-0.08,2.03
		c0,0.69,0.03,1.37,0.08,2.05s0.14,1.38,0.28,2.13c0.13,0.75,0.3,1.44,0.5,2.08s0.48,1.25,0.83,1.84c0.35,0.59,0.74,1.09,1.17,1.51
		c0.98,0.91,2.21,1.37,3.69,1.37c4.13,0,6.19-3.67,6.19-11.01c0-5.98-1.4-9.58-4.19-10.82c-0.61-0.27-1.29-0.4-2.03-0.4
		c-0.74,0-1.43,0.13-2.06,0.4c-0.63,0.27-1.16,0.62-1.6,1.06c-0.44,0.44-0.83,0.97-1.18,1.59c-0.35,0.62-0.63,1.26-0.83,1.92
		C91.6,141.52,91.43,142.23,91.29,142.98z"/>
	<path d="M126.91,150.3v-17.71h4.53v28.85h-3.62l-11.65-22.13v22.13h-4.53v-28.85h5.87L126.91,150.3z"/>
	<path d="M133.71,136.42v-3.83h20.13v3.83h-7.79v25.02h-4.55v-25.02H133.71z"/>
	<path d="M151.65,161.44l8.23-28.85h4.99l8.23,28.85h-4.4l-2.38-8.36h-7.56l-2.38,8.36H151.65z M159.84,149.26h5.39l-2.69-9.31
		L159.84,149.26z"/>
	<path d="M173.95,150.59c-0.2-1.19-0.3-2.4-0.3-3.62s0.09-2.42,0.29-3.6c0.19-1.18,0.47-2.33,0.85-3.46
		c0.37-1.12,0.86-2.16,1.47-3.1c0.6-0.95,1.29-1.77,2.07-2.49c1.65-1.51,3.7-2.27,6.15-2.27c3.11,0,5.57,1.55,7.37,4.67
		c0.88,1.51,1.47,3.07,1.77,4.67v0.02l-3.96,1.07c-0.2-1.36-0.44-2.35-0.72-2.98c-0.28-0.63-0.56-1.16-0.84-1.58
		c-0.28-0.43-0.58-0.78-0.91-1.06c-0.79-0.65-1.68-0.97-2.68-0.97c-1,0-1.85,0.23-2.56,0.68c-0.71,0.45-1.29,1.04-1.75,1.77
		c-0.46,0.73-0.84,1.58-1.14,2.56c-0.56,1.8-0.84,3.83-0.84,6.09c0,5.99,1.42,9.57,4.27,10.74c0.61,0.25,1.26,0.38,1.94,0.38
		s1.3-0.09,1.84-0.27c0.54-0.18,0.99-0.41,1.36-0.69c0.37-0.29,0.7-0.62,0.98-1.02c0.29-0.39,0.51-0.79,0.69-1.19
		c0.17-0.4,0.31-0.81,0.41-1.23c0.19-0.74,0.29-1.42,0.29-2.06l4.25,0.59c-0.57,2.44-1.57,4.55-2.99,6.34
		c-1.8,2.23-4.07,3.35-6.8,3.35c-3.35,0-6.05-1.59-8.09-4.78C175.18,155.37,174.38,153.18,173.95,150.59z"/>
	<path d="M194.56,136.42v-3.83h20.13v3.83h-7.79v25.02h-4.55v-25.02H194.56z"/>
	<path d="M225.75,152.91v-20.32h4.55v19.23c0,3.21,1.03,5.21,3.1,5.98c0.53,0.2,1.13,0.3,1.79,0.3s1.26-0.09,1.79-0.27
		c0.53-0.18,0.96-0.4,1.29-0.67c0.33-0.27,0.62-0.61,0.86-1.02c0.24-0.41,0.42-0.79,0.53-1.13c0.11-0.34,0.21-0.75,0.29-1.22
		c0.08-0.61,0.11-1.27,0.11-1.98v-19.23h4.65v20.32c0,2.91-0.96,5.21-2.88,6.91c-1.59,1.41-3.8,2.12-6.63,2.12
		c-4.3,0-7.16-1.63-8.57-4.89C226.05,155.7,225.75,154.32,225.75,152.91z"/>
	<path d="M247.36,154.05l3.66-1.2c0.01,0,0.04,0.1,0.08,0.29c0.04,0.19,0.1,0.44,0.2,0.75c0.09,0.31,0.23,0.65,0.4,1.03
		c0.17,0.38,0.42,0.75,0.75,1.12s0.72,0.71,1.16,1.02c0.99,0.7,2.22,1.05,3.69,1.05s2.55-0.36,3.25-1.09
		c0.69-0.72,1.04-1.58,1.04-2.58s-0.1-1.8-0.3-2.42s-0.56-1.15-1.07-1.61c-0.85-0.76-2.32-1.45-4.42-2.06
		c-3.69-1.08-6.07-2.75-7.12-5.01c-0.55-1.18-0.82-2.57-0.82-4.17c0-1.34,0.48-2.66,1.43-3.94c1.66-2.12,4.02-3.18,7.08-3.18
		c2.42,0,4.41,0.73,5.96,2.19c1.1,1.03,1.93,2.32,2.48,3.88l0.36,1.01c0.12,0.3,0.19,0.5,0.23,0.59l-3.71,1.31
		c-0.84-2.67-2.15-4.31-3.92-4.93c-0.44-0.15-0.91-0.23-1.39-0.23c-2.64,0-3.96,1.36-3.96,4.08c0,1.24,0.37,2.2,1.1,2.86
		c0.61,0.57,1.41,1.02,2.4,1.35l0.91,0.3c0.52,0.18,0.81,0.27,0.86,0.29l0.84,0.29c2.17,0.76,3.64,1.44,4.4,2.02
		c1.12,0.86,1.85,1.66,2.19,2.38c0.69,1.48,1.03,3.05,1.03,4.7c0,1.29-0.37,2.61-1.1,3.94c-0.99,1.79-2.56,2.96-4.7,3.52
		c-0.83,0.21-1.73,0.32-2.71,0.32s-1.89-0.09-2.75-0.27c-0.86-0.18-1.6-0.42-2.22-0.72s-1.19-0.65-1.71-1.05
		c-0.52-0.39-0.96-0.81-1.31-1.25s-0.67-0.88-0.93-1.31s-0.48-0.85-0.64-1.25c-0.16-0.39-0.29-0.74-0.39-1.05s-0.17-0.54-0.22-0.72
		C247.4,154.14,247.37,154.05,247.36,154.05z"/>
</g>
</svg>
