<?xml version="1.0" encoding="utf-8"?>
<!-- Generator: Adobe Illustrator 25.0.0, SVG Export Plug-In . SVG Version: 6.00 Build 0)  -->
<svg version="1.1" id="Layer_1" xmlns="http://www.w3.org/2000/svg" xmlns:xlink="http://www.w3.org/1999/xlink" x="0px" y="0px"
	 viewBox="0 0 113.38 775.7" style="enable-background:new 0 0 113.38 775.7;" xml:space="preserve">
<style type="text/css">
	.st0{fill:#AF92C0;}
</style>
<g>
	<path class="st0" d="M70.31,774.54c-4.53,0.77-9.11,1.16-13.73,1.16s-9.18-0.36-13.66-1.08s-8.85-1.79-13.12-3.22
		c-4.26-1.42-8.19-3.28-11.78-5.56c-3.59-2.29-6.73-4.9-9.43-7.84C2.87,751.73,0,743.95,0,734.65c0-11.8,5.9-21.13,17.71-27.97
		c5.73-3.32,11.63-5.56,17.71-6.72h0.07L39.53,715c-5.16,0.77-8.93,1.69-11.31,2.75s-4.38,2.12-6,3.18
		c-1.61,1.06-2.95,2.22-4.01,3.47c-2.46,2.99-3.69,6.37-3.69,10.15c0,3.78,0.86,7.02,2.56,9.72c1.71,2.7,3.95,4.91,6.72,6.65
		c2.77,1.73,6.01,3.18,9.72,4.34c6.84,2.12,14.55,3.18,23.12,3.18c22.74,0,36.33-5.4,40.76-16.19c0.96-2.31,1.45-4.77,1.45-7.37
		s-0.34-4.92-1.01-6.97c-0.67-2.05-1.55-3.77-2.64-5.17s-2.37-2.64-3.87-3.72s-3-1.95-4.52-2.6s-3.07-1.17-4.66-1.55
		c-2.79-0.72-5.4-1.08-7.8-1.08l2.24-16.12c9.25,2.17,17.27,5.95,24.06,11.35c8.48,6.84,12.72,15.44,12.72,25.8
		c0,12.72-6.05,22.96-18.14,30.71C88.45,769.89,80.14,772.91,70.31,774.54z"/>
	<path class="st0" d="M68.07,689.49c-3.66,0.48-7.3,0.72-10.91,0.72s-7.25-0.22-10.91-0.65c-3.66-0.43-7.38-1.16-11.17-2.17
		c-3.78-1.01-7.36-2.26-10.73-3.76s-6.56-3.38-9.58-5.67c-3.01-2.29-5.6-4.85-7.77-7.7C2.34,664.15,0,656.7,0,647.93
		c0-12.04,4.96-21.68,14.89-28.91c10.79-7.8,24.88-11.71,42.28-11.71c17.73,0,31.7,3.76,41.91,11.27
		c9.54,7.03,14.31,16.81,14.31,29.34c0,11.9-4.79,21.66-14.38,29.27C90.91,683.66,80.6,687.75,68.07,689.49z M41.44,671.6
		c2.87,0.51,5.55,0.86,8.06,1.05s5.07,0.29,7.7,0.29c2.63,0,5.22-0.1,7.77-0.29s5.25-0.54,8.09-1.05s5.47-1.14,7.88-1.92
		s4.73-1.82,6.97-3.14c2.24-1.32,4.16-2.81,5.75-4.44c3.47-3.71,5.2-8.38,5.2-14.02c0-15.66-13.92-23.49-41.77-23.49
		c-22.69,0-36.37,5.3-41.05,15.9c-1.01,2.31-1.52,4.88-1.52,7.7s0.51,5.42,1.52,7.8s2.35,4.41,4.01,6.07s3.67,3.16,6.04,4.48
		c2.36,1.33,4.79,2.37,7.3,3.14S38.58,671.09,41.44,671.6z"/>
	<path class="st0" d="M83.47,600.96l-4.55-13.88c0-0.05,0.36-0.14,1.08-0.29s1.67-0.4,2.85-0.76c1.18-0.36,2.48-0.87,3.9-1.52
		c1.42-0.65,2.84-1.6,4.26-2.85c1.42-1.25,2.71-2.72,3.87-4.41c2.65-3.76,3.97-8.43,3.97-14.02s-1.37-9.69-4.12-12.32
		c-2.75-2.62-6.01-3.94-9.79-3.94c-3.78,0-6.84,0.39-9.18,1.16c-2.34,0.77-4.37,2.12-6.11,4.05c-2.89,3.23-5.49,8.82-7.8,16.77
		c-4.1,14.02-10.43,23.03-19.01,27.03c-4.48,2.07-9.76,3.11-15.83,3.11c-5.11,0-10.09-1.81-14.96-5.42
		C4.02,587.35,0,578.39,0,566.78c0-9.2,2.77-16.74,8.31-22.62c3.9-4.19,8.82-7.32,14.74-9.39l3.83-1.37
		c1.16-0.43,1.9-0.72,2.24-0.87l4.99,14.09c-10.12,3.18-16.36,8.14-18.72,14.89c-0.58,1.69-0.87,3.44-0.87,5.28
		c0,10.02,5.16,15.03,15.46,15.03c4.72,0,8.33-1.4,10.84-4.19c2.17-2.31,3.88-5.35,5.13-9.11l1.16-3.47
		c0.67-1.98,1.04-3.06,1.08-3.25l1.08-3.18c2.89-8.24,5.44-13.8,7.66-16.69c3.28-4.24,6.29-7.01,9.03-8.31
		c5.64-2.6,11.59-3.9,17.85-3.9c4.91,0,9.9,1.4,14.96,4.19c6.79,3.76,11.25,9.71,13.37,17.85c0.82,3.13,1.23,6.55,1.23,10.26
		s-0.34,7.19-1.01,10.44c-0.68,3.25-1.59,6.06-2.75,8.42s-2.48,4.53-3.97,6.5s-3.07,3.64-4.73,4.99s-3.32,2.53-4.99,3.54
		s-3.24,1.82-4.73,2.42c-1.49,0.6-2.82,1.1-3.97,1.48s-2.07,0.66-2.75,0.83C83.8,600.81,83.47,600.91,83.47,600.96z"/>
	<path class="st0" d="M37.36,502.17h74.14v16.91H2.02v-23.41l75.66-21.03v-0.72L2.02,452.89v-23.41h109.48v16.98H37.36v0.65
		l74.14,20.52v13.3l-74.14,20.52V502.17z"/>
	<path class="st0" d="M68.07,415.38c-3.66,0.48-7.3,0.72-10.91,0.72s-7.25-0.22-10.91-0.65c-3.66-0.43-7.38-1.16-11.17-2.17
		c-3.78-1.01-7.36-2.26-10.73-3.76c-3.37-1.49-6.56-3.38-9.58-5.67c-3.01-2.29-5.6-4.85-7.77-7.7C2.34,390.04,0,382.6,0,373.83
		c0-12.04,4.96-21.68,14.89-28.91c10.79-7.8,24.88-11.71,42.28-11.71c17.73,0,31.7,3.76,41.91,11.27
		c9.54,7.03,14.31,16.81,14.31,29.34c0,11.9-4.79,21.66-14.38,29.27C90.91,409.55,80.6,413.65,68.07,415.38z M41.44,397.5
		c2.87,0.51,5.55,0.86,8.06,1.05c2.51,0.19,5.07,0.29,7.7,0.29c2.63,0,5.22-0.1,7.77-0.29c2.55-0.19,5.25-0.54,8.09-1.05
		s5.47-1.14,7.88-1.92c2.41-0.77,4.73-1.82,6.97-3.14c2.24-1.32,4.16-2.81,5.75-4.44c3.47-3.71,5.2-8.38,5.2-14.02
		c0-15.66-13.92-23.49-41.77-23.49c-22.69,0-36.37,5.3-41.05,15.9c-1.01,2.31-1.52,4.88-1.52,7.7s0.51,5.42,1.52,7.8
		s2.35,4.41,4.01,6.07s3.67,3.16,6.04,4.48c2.36,1.33,4.79,2.37,7.3,3.14C35.89,396.35,38.58,396.99,41.44,397.5z"/>
	<path class="st0" d="M111.51,319.7H2.02v-17.27h92.86v-45.24h16.62V319.7z"/>
	<path class="st0" d="M68.07,253.94c-3.66,0.48-7.3,0.72-10.91,0.72s-7.25-0.22-10.91-0.65c-3.66-0.43-7.38-1.16-11.17-2.17
		c-3.78-1.01-7.36-2.26-10.73-3.76c-3.37-1.49-6.56-3.38-9.58-5.67c-3.01-2.29-5.6-4.85-7.77-7.7C2.34,228.6,0,221.16,0,212.39
		c0-12.04,4.96-21.68,14.89-28.91c10.79-7.8,24.88-11.71,42.28-11.71c17.73,0,31.7,3.76,41.91,11.27
		c9.54,7.03,14.31,16.81,14.31,29.34c0,11.9-4.79,21.66-14.38,29.27C90.91,248.11,80.6,252.21,68.07,253.94z M41.44,236.06
		c2.87,0.51,5.55,0.86,8.06,1.05c2.51,0.19,5.07,0.29,7.7,0.29c2.63,0,5.22-0.1,7.77-0.29c2.55-0.19,5.25-0.54,8.09-1.05
		s5.47-1.14,7.88-1.92c2.41-0.77,4.73-1.82,6.97-3.14c2.24-1.32,4.16-2.81,5.75-4.44c3.47-3.71,5.2-8.38,5.2-14.02
		c0-15.66-13.92-23.49-41.77-23.49c-22.69,0-36.37,5.3-41.05,15.9c-1.01,2.31-1.52,4.88-1.52,7.7s0.51,5.42,1.52,7.8
		s2.35,4.41,4.01,6.07s3.67,3.16,6.04,4.48c2.36,1.33,4.79,2.37,7.3,3.14C35.89,234.91,38.58,235.55,41.44,236.06z"/>
	<path class="st0" d="M36.71,100.02c-14.79,3.13-22.19,9.68-22.19,19.66c0,10.55,6,17.95,17.99,22.19
		c6.7,2.36,14.55,3.54,23.56,3.54c21.68,0,35.17-4.6,40.47-13.8c1.54-2.7,2.31-5.56,2.31-8.6s-0.3-5.6-0.9-7.7
		c-0.6-2.1-1.37-3.85-2.31-5.28c-0.94-1.42-2.15-2.66-3.65-3.72c-1.49-1.06-2.99-1.88-4.48-2.46s-3.28-1.04-5.35-1.37
		c-3.13-0.53-6.91-0.84-11.35-0.94v21.03h-14.6V84.55h55.28v14.02h-8.67c3.76,3.08,6.43,6.46,8.02,10.12
		c1.69,3.95,2.53,8.5,2.53,13.66c0,5.16-1.05,9.88-3.14,14.16c-2.1,4.29-4.97,8-8.63,11.13c-3.66,3.13-7.93,5.85-12.79,8.17
		c-9.68,4.58-20.64,6.87-32.88,6.87c-11.71,0-22.21-2.19-31.51-6.58c-10.26-4.87-17.34-11.59-21.25-20.16
		C1.06,131.26,0,126.77,0,122.45c0-4.31,0.3-7.76,0.9-10.33c0.6-2.58,1.69-5.2,3.25-7.88c1.57-2.67,3.6-5.09,6.11-7.26
		c5.44-4.77,13.37-8.67,23.78-11.71L36.71,100.02z"/>
	<path class="st0" d="M60.85,31.8h50.66V49H60.85L2.02,80.79V62.58L43.43,40.4L2.02,18.21V0L60.85,31.8z"/>
</g>
</svg>
