<?xml version="1.0" encoding="utf-8"?>
<!-- Generator: Adobe Illustrator 25.0.0, SVG Export Plug-In . SVG Version: 6.00 Build 0)  -->
<svg version="1.1" id="Layer_1" xmlns="http://www.w3.org/2000/svg" xmlns:xlink="http://www.w3.org/1999/xlink" x="0px" y="0px"
	 viewBox="0 0 138.5 119.9" style="enable-background:new 0 0 138.5 119.9;" xml:space="preserve">
<style type="text/css">
	.st0{fill:#D8BFB1;}
	.st1{enable-background:new    ;}
	.st2{fill:#3EA481;}
	.st3{fill:#FFFFFF;}
</style>
<g>
	<g>
		<polygon class="st0" points="103.8,0 138.5,60 103.8,119.9 34.6,119.9 0,60 34.6,0 		"/>
	</g>
	<g>
		<g class="st1">
			<path d="M37.61,67.21c-0.24-1.4-0.36-2.81-0.36-4.24c0-1.43,0.11-2.83,0.33-4.22c0.22-1.38,0.55-2.73,0.99-4.05
				c0.44-1.32,1.01-2.53,1.72-3.64c0.71-1.11,1.51-2.08,2.42-2.91c1.93-1.77,4.34-2.66,7.21-2.66c3.65,0,6.52,1.82,8.64,5.47
				c1.03,1.77,1.72,3.59,2.08,5.47v0.02L56,57.7c-0.24-1.59-0.52-2.76-0.85-3.49s-0.65-1.35-0.98-1.85
				c-0.33-0.5-0.68-0.91-1.07-1.24c-0.92-0.76-1.97-1.14-3.14-1.14c-1.17,0-2.17,0.26-3,0.79c-0.83,0.53-1.52,1.22-2.05,2.08
				s-0.98,1.86-1.34,3c-0.65,2.11-0.98,4.49-0.98,7.14c0,7.02,1.67,11.22,5,12.59c0.71,0.3,1.47,0.45,2.28,0.45
				c0.8,0,1.52-0.1,2.15-0.31c0.63-0.21,1.16-0.48,1.6-0.81s0.81-0.73,1.15-1.19c0.33-0.46,0.6-0.93,0.8-1.39
				c0.2-0.47,0.36-0.95,0.48-1.44c0.22-0.86,0.33-1.67,0.33-2.41l4.98,0.69c-0.67,2.86-1.84,5.33-3.5,7.43
				c-2.11,2.62-4.77,3.93-7.97,3.93c-3.93,0-7.09-1.87-9.49-5.6C39.04,72.82,38.11,70.25,37.61,67.21z"/>
		</g>
		<g class="st1">
			<path class="st2" d="M65.38,70.6l4.31-1.32c0.01,0,0.04,0.11,0.08,0.34c0.04,0.22,0.11,0.52,0.22,0.89
				c0.1,0.37,0.25,0.77,0.45,1.21c0.19,0.44,0.48,0.89,0.86,1.33c0.38,0.45,0.82,0.85,1.34,1.22c1.14,0.84,2.58,1.28,4.3,1.31
				s3-0.37,3.83-1.2c0.83-0.83,1.25-1.83,1.27-3c0.02-1.17-0.08-2.11-0.3-2.84c-0.22-0.73-0.63-1.36-1.21-1.91
				c-0.98-0.91-2.69-1.75-5.13-2.51c-4.31-1.35-7.05-3.36-8.23-6.03c-0.61-1.4-0.9-3.03-0.86-4.91c0.03-1.58,0.62-3.11,1.76-4.59
				c2-2.45,4.79-3.64,8.37-3.57c2.84,0.05,5.15,0.96,6.94,2.7c1.27,1.23,2.21,2.77,2.81,4.61l0.4,1.19c0.13,0.36,0.21,0.59,0.25,0.7
				l-4.38,1.46c-0.92-3.14-2.42-5.1-4.49-5.87c-0.52-0.19-1.06-0.29-1.62-0.3c-3.09-0.06-4.67,1.5-4.73,4.69
				c-0.03,1.46,0.38,2.58,1.23,3.37c0.7,0.68,1.63,1.23,2.78,1.64l1.06,0.38c0.61,0.22,0.94,0.34,1,0.35l0.98,0.35
				c2.53,0.94,4.23,1.76,5.11,2.46c1.29,1.04,2.13,1.98,2.51,2.84c0.77,1.75,1.14,3.6,1.1,5.53c-0.03,1.52-0.49,3.05-1.38,4.59
				c-1.2,2.08-3.06,3.42-5.59,4.02c-0.97,0.23-2.03,0.34-3.18,0.32c-1.15-0.02-2.22-0.15-3.22-0.37c-1-0.23-1.86-0.53-2.58-0.9
				s-1.38-0.79-1.98-1.27c-0.6-0.47-1.1-0.97-1.51-1.49c-0.41-0.52-0.76-1.04-1.06-1.56c-0.3-0.52-0.54-1.01-0.72-1.48
				c-0.18-0.46-0.32-0.88-0.43-1.24c-0.11-0.36-0.19-0.64-0.24-0.85S65.4,70.6,65.38,70.6z"/>
		</g>
		<g class="st1">
			<path class="st3" d="M92.3,45.73V56.8h-2.53V40.45h3.5l3.14,11.3h0.11l3.14-11.3h3.5V56.8h-2.54V45.73h-0.1L97.46,56.8h-1.99
				l-3.07-11.07H92.3z"/>
		</g>
	</g>
</g>
</svg>
