<?xml version="1.0" encoding="utf-8"?>
<!-- Generator: Adobe Illustrator 25.0.0, SVG Export Plug-In . SVG Version: 6.00 Build 0)  -->
<svg version="1.1" id="Layer_1" xmlns="http://www.w3.org/2000/svg" xmlns:xlink="http://www.w3.org/1999/xlink" x="0px" y="0px"
	 viewBox="0 0 108.06 93.2" style="enable-background:new 0 0 108.06 93.2;" xml:space="preserve">
<style type="text/css">
	.st0{enable-background:new    ;}
	.st1{fill:#FFFFFF;}
</style>
<g class="st0">
	<path class="st1" d="M0.81,12.42c-0.11-0.64-0.16-1.29-0.16-1.95S0.7,9.17,0.8,8.54C0.9,7.9,1.05,7.28,1.26,6.68
		C1.46,6.07,1.72,5.51,2.05,5c0.32-0.51,0.7-0.96,1.11-1.34c0.89-0.81,1.99-1.22,3.31-1.22c1.67,0,3,0.84,3.97,2.51
		c0.47,0.81,0.79,1.65,0.95,2.51v0.01L9.26,8.05c-0.11-0.73-0.24-1.27-0.39-1.6C8.72,6.11,8.57,5.83,8.42,5.6
		C8.27,5.37,8.1,5.18,7.93,5.03C7.5,4.68,7.02,4.51,6.49,4.51s-1,0.12-1.38,0.36c-0.38,0.24-0.7,0.56-0.94,0.95
		C3.92,6.22,3.71,6.68,3.55,7.2C3.25,8.17,3.1,9.27,3.1,10.48c0,3.23,0.77,5.16,2.3,5.78c0.33,0.14,0.68,0.21,1.05,0.21
		s0.7-0.05,0.99-0.14s0.54-0.22,0.73-0.38c0.2-0.15,0.37-0.34,0.53-0.55c0.15-0.21,0.28-0.42,0.37-0.64
		c0.09-0.21,0.17-0.44,0.22-0.66c0.1-0.4,0.15-0.77,0.15-1.11l2.29,0.32c-0.31,1.31-0.84,2.45-1.61,3.42
		c-0.97,1.2-2.19,1.8-3.66,1.8c-1.8,0-3.26-0.86-4.36-2.57C1.47,15,1.04,13.82,0.81,12.42z"/>
	<path class="st1" d="M12.88,12.11c-0.07-0.52-0.1-1.04-0.1-1.55s0.03-1.03,0.09-1.55c0.06-0.52,0.16-1.05,0.31-1.58
		c0.14-0.54,0.32-1.04,0.53-1.52s0.48-0.93,0.8-1.36c0.32-0.43,0.69-0.79,1.09-1.1c0.87-0.66,1.92-1,3.17-1
		c1.71,0,3.08,0.71,4.1,2.11c1.11,1.53,1.66,3.53,1.66,6c0,2.52-0.53,4.5-1.6,5.95c-1,1.35-2.39,2.03-4.16,2.03
		c-1.69,0-3.07-0.68-4.15-2.04C13.71,15.35,13.12,13.88,12.88,12.11z M15.42,8.33c-0.07,0.41-0.12,0.79-0.15,1.14
		s-0.04,0.72-0.04,1.09c0,0.37,0.01,0.74,0.04,1.1s0.08,0.75,0.15,1.15c0.07,0.4,0.16,0.78,0.27,1.12c0.11,0.34,0.26,0.67,0.45,0.99
		c0.19,0.32,0.4,0.59,0.63,0.81c0.53,0.49,1.19,0.74,1.99,0.74c2.22,0,3.33-1.97,3.33-5.93c0-3.22-0.75-5.16-2.26-5.82
		c-0.33-0.14-0.69-0.22-1.09-0.22c-0.4,0-0.77,0.07-1.11,0.22c-0.34,0.14-0.62,0.33-0.86,0.57c-0.24,0.24-0.45,0.52-0.64,0.86
		s-0.34,0.68-0.45,1.04S15.49,7.92,15.42,8.33z"/>
	<path class="st1" d="M28.78,7.75v10.52h-2.4V2.73h3.32l2.98,10.74h0.1l2.98-10.74h3.32v15.54h-2.41V7.75H36.6l-2.91,10.52H31.8
		L28.89,7.75H28.78z"/>
	<path class="st1" d="M43.94,7.75v10.52h-2.4V2.73h3.32l2.98,10.74h0.1l2.98-10.74h3.32v15.54h-2.41V7.75h-0.09l-2.91,10.52h-1.89
		L44.04,7.75H43.94z"/>
	<path class="st1" d="M56.77,13.67V2.73h2.45v10.36c0,1.73,0.56,2.8,1.67,3.22c0.29,0.11,0.61,0.16,0.96,0.16s0.68-0.05,0.96-0.14
		s0.52-0.22,0.7-0.36s0.33-0.33,0.46-0.55c0.13-0.22,0.23-0.43,0.29-0.61c0.06-0.19,0.11-0.4,0.15-0.66
		c0.04-0.33,0.06-0.68,0.06-1.07V2.73h2.5v10.94c0,1.57-0.52,2.81-1.55,3.72c-0.85,0.76-2.04,1.14-3.57,1.14
		c-2.32,0-3.86-0.88-4.61-2.64C56.93,15.17,56.77,14.43,56.77,13.67z"/>
	<path class="st1" d="M77.56,12.27V2.73H80v15.54h-1.95L71.78,6.35v11.92h-2.44V2.73h3.16L77.56,12.27z"/>
	<path class="st1" d="M82.22,18.27V2.73h2.45v15.54H82.22z"/>
	<path class="st1" d="M85.7,4.79V2.73h10.84v2.06h-4.19v13.47H89.9V4.79H85.7z"/>
	<path class="st1" d="M103.54,11.08v7.19h-2.44v-7.19l-4.51-8.35h2.58l3.15,5.88l3.15-5.88h2.58L103.54,11.08z"/>
</g>
<g class="st0">
	<path class="st1" d="M0.25,48.29l1.97-0.65c0.01,0,0.02,0.05,0.04,0.15s0.06,0.24,0.11,0.41c0.05,0.17,0.12,0.35,0.22,0.55
		c0.09,0.2,0.23,0.4,0.4,0.6c0.18,0.2,0.39,0.38,0.63,0.55c0.53,0.38,1.2,0.56,1.99,0.56s1.38-0.19,1.75-0.58s0.56-0.85,0.56-1.39
		c0-0.54-0.05-0.97-0.16-1.3c-0.11-0.33-0.3-0.62-0.57-0.87c-0.46-0.41-1.25-0.78-2.38-1.11c-1.99-0.58-3.27-1.48-3.83-2.7
		c-0.29-0.64-0.44-1.38-0.44-2.25c0-0.72,0.26-1.43,0.77-2.12c0.9-1.14,2.17-1.71,3.81-1.71c1.31,0,2.38,0.39,3.21,1.18
		c0.59,0.55,1.04,1.25,1.33,2.09l0.19,0.54c0.06,0.16,0.1,0.27,0.12,0.32l-2,0.71c-0.45-1.44-1.16-2.32-2.11-2.66
		c-0.24-0.08-0.49-0.12-0.75-0.12c-1.42,0-2.13,0.73-2.13,2.19c0,0.67,0.2,1.18,0.59,1.54c0.33,0.31,0.76,0.55,1.29,0.73l0.49,0.16
		c0.28,0.1,0.43,0.15,0.46,0.15l0.45,0.15c1.17,0.41,1.96,0.77,2.37,1.09c0.6,0.47,0.99,0.89,1.18,1.28
		c0.37,0.8,0.55,1.64,0.55,2.53c0,0.7-0.2,1.41-0.59,2.12c-0.53,0.96-1.38,1.6-2.53,1.9c-0.44,0.12-0.93,0.17-1.46,0.17
		s-1.02-0.05-1.48-0.14C3.83,52.29,3.43,52.17,3.1,52s-0.64-0.35-0.92-0.56S1.66,51,1.47,50.77c-0.19-0.24-0.36-0.47-0.5-0.71
		c-0.14-0.24-0.26-0.46-0.34-0.67s-0.16-0.4-0.21-0.56s-0.09-0.29-0.12-0.39S0.25,48.29,0.25,48.29z"/>
	<path class="st1" d="M11.48,46.42c-0.11-0.64-0.16-1.29-0.16-1.95s0.05-1.3,0.15-1.94c0.1-0.64,0.25-1.26,0.46-1.86
		c0.2-0.61,0.46-1.16,0.79-1.67c0.32-0.51,0.7-0.96,1.11-1.34c0.89-0.81,1.99-1.22,3.31-1.22c1.67,0,3,0.84,3.97,2.51
		c0.47,0.81,0.79,1.65,0.95,2.51v0.01l-2.13,0.57c-0.11-0.73-0.24-1.27-0.39-1.6c-0.15-0.34-0.3-0.62-0.45-0.85
		c-0.15-0.23-0.31-0.42-0.49-0.57c-0.42-0.35-0.9-0.52-1.44-0.52s-1,0.12-1.38,0.36c-0.38,0.24-0.7,0.56-0.94,0.95
		c-0.25,0.39-0.45,0.85-0.62,1.38c-0.3,0.97-0.45,2.07-0.45,3.28c0,3.23,0.77,5.16,2.3,5.78c0.33,0.14,0.68,0.21,1.05,0.21
		s0.7-0.05,0.99-0.14s0.54-0.22,0.73-0.38c0.2-0.15,0.37-0.34,0.53-0.55c0.15-0.21,0.28-0.42,0.37-0.64
		c0.09-0.21,0.17-0.44,0.22-0.66c0.1-0.4,0.15-0.77,0.15-1.11l2.29,0.32c-0.31,1.31-0.84,2.45-1.61,3.42
		c-0.97,1.2-2.19,1.8-3.66,1.8c-1.8,0-3.26-0.86-4.36-2.57C12.14,49,11.72,47.82,11.48,46.42z"/>
	<path class="st1" d="M23.82,52.27V36.73h2.45v15.54H23.82z"/>
	<path class="st1" d="M28.55,52.27V36.73h8.89v2.06H31v4.3h4.48v2.07H31v4.9h6.83v2.21H28.55z"/>
	<path class="st1" d="M47.75,46.27v-9.54h2.44v15.54h-1.95l-6.28-11.92v11.92h-2.44V36.73h3.16L47.75,46.27z"/>
	<path class="st1" d="M52.2,46.42c-0.11-0.64-0.16-1.29-0.16-1.95s0.05-1.3,0.15-1.94c0.1-0.64,0.25-1.26,0.46-1.86
		c0.2-0.61,0.46-1.16,0.79-1.67c0.32-0.51,0.7-0.96,1.11-1.34c0.89-0.81,1.99-1.22,3.31-1.22c1.67,0,3,0.84,3.97,2.51
		c0.47,0.81,0.79,1.65,0.95,2.51v0.01l-2.13,0.57c-0.11-0.73-0.24-1.27-0.39-1.6c-0.15-0.34-0.3-0.62-0.45-0.85
		c-0.15-0.23-0.31-0.42-0.49-0.57c-0.42-0.35-0.9-0.52-1.44-0.52s-1,0.12-1.38,0.36c-0.38,0.24-0.7,0.56-0.94,0.95
		c-0.25,0.39-0.45,0.85-0.62,1.38c-0.3,0.97-0.45,2.07-0.45,3.28c0,3.23,0.77,5.16,2.3,5.78c0.33,0.14,0.68,0.21,1.05,0.21
		s0.7-0.05,0.99-0.14s0.54-0.22,0.73-0.38c0.2-0.15,0.37-0.34,0.53-0.55c0.15-0.21,0.28-0.42,0.37-0.64
		c0.09-0.21,0.17-0.44,0.22-0.66c0.1-0.4,0.15-0.77,0.15-1.11l2.29,0.32c-0.31,1.31-0.84,2.45-1.61,3.42
		c-0.97,1.2-2.19,1.8-3.66,1.8c-1.8,0-3.26-0.86-4.36-2.57C52.86,49,52.44,47.82,52.2,46.42z"/>
	<path class="st1" d="M64.78,52.27V36.73h8.89v2.06h-6.44v4.3h4.48v2.07h-4.48v4.9h6.83v2.21H64.78z"/>
</g>
<g class="st0">
	<path class="st1" d="M3.59,75.75v10.52h-2.4V70.73h3.32L7.5,81.47h0.1l2.98-10.74h3.32v15.54h-2.41V75.75H11.4L8.49,86.27H6.6
		L3.69,75.75H3.59z"/>
	<path class="st1" d="M16.42,81.67V70.73h2.45v10.36c0,1.73,0.56,2.8,1.67,3.22c0.29,0.11,0.61,0.16,0.96,0.16s0.68-0.05,0.96-0.14
		s0.52-0.22,0.7-0.36s0.33-0.33,0.46-0.55c0.13-0.22,0.23-0.43,0.29-0.61c0.06-0.19,0.11-0.4,0.15-0.66
		c0.04-0.33,0.06-0.68,0.06-1.07V70.73h2.5v10.94c0,1.57-0.52,2.81-1.55,3.72c-0.85,0.76-2.04,1.14-3.57,1.14
		c-2.32,0-3.86-0.88-4.61-2.64C16.58,83.17,16.42,82.43,16.42,81.67z"/>
	<path class="st1" d="M28.05,82.29l1.97-0.65c0.01,0,0.02,0.05,0.04,0.15s0.06,0.24,0.11,0.41c0.05,0.17,0.12,0.35,0.22,0.55
		c0.09,0.2,0.23,0.4,0.4,0.6c0.18,0.2,0.39,0.38,0.63,0.55c0.53,0.38,1.2,0.56,1.99,0.56s1.38-0.19,1.75-0.58s0.56-0.85,0.56-1.39
		c0-0.54-0.05-0.97-0.16-1.3c-0.11-0.33-0.3-0.62-0.57-0.87c-0.46-0.41-1.25-0.78-2.38-1.11c-1.99-0.58-3.27-1.48-3.83-2.7
		c-0.29-0.64-0.44-1.38-0.44-2.25c0-0.72,0.26-1.43,0.77-2.12c0.9-1.14,2.17-1.71,3.81-1.71c1.31,0,2.38,0.39,3.21,1.18
		c0.59,0.55,1.04,1.25,1.33,2.09l0.19,0.54c0.06,0.16,0.1,0.27,0.12,0.32l-2,0.71c-0.45-1.44-1.16-2.32-2.11-2.66
		c-0.24-0.08-0.49-0.12-0.75-0.12c-1.42,0-2.13,0.73-2.13,2.19c0,0.67,0.2,1.18,0.59,1.54c0.33,0.31,0.76,0.55,1.29,0.73l0.49,0.16
		c0.28,0.1,0.43,0.15,0.46,0.15l0.45,0.15c1.17,0.41,1.96,0.77,2.37,1.09c0.6,0.47,0.99,0.89,1.18,1.28
		c0.37,0.8,0.55,1.64,0.55,2.53c0,0.7-0.2,1.41-0.59,2.12c-0.53,0.96-1.38,1.6-2.53,1.9c-0.44,0.12-0.93,0.17-1.46,0.17
		s-1.02-0.05-1.48-0.14c-0.46-0.1-0.86-0.23-1.19-0.39s-0.64-0.35-0.92-0.56s-0.52-0.44-0.71-0.67c-0.19-0.24-0.36-0.47-0.5-0.71
		c-0.14-0.24-0.26-0.46-0.34-0.67s-0.16-0.4-0.21-0.56s-0.09-0.29-0.12-0.39S28.06,82.29,28.05,82.29z"/>
	<path class="st1" d="M39.74,86.27V70.73h8.89v2.06h-6.44v4.3h4.48v2.07h-4.48v4.9h6.83v2.21H39.74z"/>
	<path class="st1" d="M50.81,81.67V70.73h2.45v10.36c0,1.73,0.56,2.8,1.67,3.22c0.29,0.11,0.61,0.16,0.96,0.16s0.68-0.05,0.96-0.14
		s0.52-0.22,0.7-0.36s0.33-0.33,0.46-0.55c0.13-0.22,0.23-0.43,0.29-0.61c0.06-0.19,0.11-0.4,0.15-0.66
		c0.04-0.33,0.06-0.68,0.06-1.07V70.73h2.5v10.94c0,1.57-0.52,2.81-1.55,3.72c-0.85,0.76-2.04,1.14-3.57,1.14
		c-2.32,0-3.86-0.88-4.61-2.64C50.97,83.17,50.81,82.43,50.81,81.67z"/>
	<path class="st1" d="M65.79,75.75v10.52h-2.4V70.73h3.32l2.98,10.74h0.1l2.98-10.74h3.32v15.54h-2.41V75.75H73.6l-2.91,10.52H68.8
		l-2.91-10.52H65.79z"/>
</g>
</svg>
