<?xml version="1.0" encoding="utf-8"?>
<!-- Generator: Adobe Illustrator 25.0.0, SVG Export Plug-In . SVG Version: 6.00 Build 0)  -->
<svg version="1.1" id="Layer_1" xmlns="http://www.w3.org/2000/svg" xmlns:xlink="http://www.w3.org/1999/xlink" x="0px" y="0px"
	 viewBox="0 0 113.38 683.27" style="enable-background:new 0 0 113.38 683.27;" xml:space="preserve">
<style type="text/css">
	.st0{fill:#FCEBC1;}
</style>
<g>
	<path class="st0" d="M111.51,683.27H2.02v-62.65h14.53V666h30.28v-31.58h14.6V666h34.54v-48.13h15.54V683.27z"/>
	<path class="st0" d="M74.22,574.29L2.02,552.83v-18.28l109.48,32.52v14.45L2.02,614.04v-18.28L74.22,574.29z"/>
	<path class="st0" d="M68.07,531.59c-3.66,0.48-7.3,0.72-10.91,0.72s-7.25-0.22-10.91-0.65c-3.66-0.43-7.38-1.16-11.16-2.17
		s-7.36-2.26-10.73-3.76c-3.37-1.49-6.56-3.38-9.57-5.67c-3.01-2.29-5.6-4.85-7.77-7.7C2.34,506.25,0,498.8,0,490.03
		c0-12.04,4.96-21.68,14.89-28.91c10.79-7.8,24.88-11.71,42.28-11.71c17.73,0,31.7,3.76,41.91,11.27
		c9.54,7.03,14.31,16.81,14.31,29.34c0,11.9-4.79,21.66-14.38,29.27C90.91,525.76,80.6,529.85,68.07,531.59z M41.45,513.7
		c2.87,0.51,5.55,0.86,8.06,1.05c2.51,0.19,5.07,0.29,7.7,0.29s5.21-0.1,7.77-0.29c2.55-0.19,5.25-0.54,8.09-1.05
		c2.84-0.51,5.47-1.14,7.88-1.92c2.41-0.77,4.73-1.82,6.97-3.14c2.24-1.32,4.15-2.81,5.74-4.44c3.47-3.71,5.2-8.38,5.2-14.02
		c0-15.66-13.92-23.49-41.77-23.49c-22.69,0-36.37,5.3-41.05,15.9c-1.01,2.31-1.52,4.88-1.52,7.7s0.51,5.42,1.52,7.8
		s2.35,4.41,4.01,6.07s3.67,3.16,6.03,4.48c2.36,1.33,4.79,2.37,7.3,3.14C35.89,512.56,38.58,513.19,41.45,513.7z"/>
	<path class="st0" d="M111.51,435.91H2.02v-17.27h92.86V373.4h16.62V435.91z"/>
	<path class="st0" d="M79.13,364.15H2.02v-17.27h72.99c12.19,0,19.75-3.93,22.69-11.78c0.77-2.02,1.16-4.29,1.16-6.79
		c0-2.5-0.34-4.77-1.01-6.79c-0.67-2.02-1.52-3.66-2.53-4.91c-1.01-1.25-2.3-2.34-3.87-3.25c-1.57-0.92-3-1.59-4.3-2.02
		s-2.84-0.79-4.62-1.08c-2.31-0.29-4.82-0.43-7.52-0.43H2.02v-17.63h77.11c11.03,0,19.78,3.64,26.23,10.91
		c5.35,6.02,8.02,14.41,8.02,25.15c0,16.33-6.19,27.17-18.57,32.52C89.71,363.01,84.48,364.15,79.13,364.15z"/>
	<path class="st0" d="M16.55,283.71H2.02v-76.38h14.53v29.56h94.96v17.27H16.55V283.71z"/>
	<path class="st0" d="M111.51,199.96H2.02v-17.27h109.48V199.96z"/>
	<path class="st0" d="M68.07,170.26c-3.66,0.48-7.3,0.72-10.91,0.72s-7.25-0.22-10.91-0.65c-3.66-0.43-7.38-1.16-11.16-2.17
		s-7.36-2.26-10.73-3.76c-3.37-1.49-6.56-3.38-9.57-5.67c-3.01-2.29-5.6-4.85-7.77-7.7C2.34,144.92,0,137.47,0,128.71
		c0-12.04,4.96-21.68,14.89-28.91c10.79-7.8,24.88-11.71,42.28-11.71c17.73,0,31.7,3.76,41.91,11.27
		c9.54,7.03,14.31,16.81,14.31,29.34c0,11.9-4.79,21.66-14.38,29.27C90.91,164.43,80.6,168.52,68.07,170.26z M41.45,152.37
		c2.87,0.51,5.55,0.86,8.06,1.05c2.51,0.19,5.07,0.29,7.7,0.29s5.21-0.1,7.77-0.29c2.55-0.19,5.25-0.54,8.09-1.05
		c2.84-0.51,5.47-1.14,7.88-1.92c2.41-0.77,4.73-1.82,6.97-3.14c2.24-1.32,4.15-2.81,5.74-4.44c3.47-3.71,5.2-8.38,5.2-14.02
		c0-15.66-13.92-23.49-41.77-23.49c-22.69,0-36.37,5.3-41.05,15.9c-1.01,2.31-1.52,4.88-1.52,7.7s0.51,5.42,1.52,7.8
		s2.35,4.41,4.01,6.07s3.67,3.16,6.03,4.48c2.36,1.33,4.79,2.37,7.3,3.14C35.89,151.23,38.58,151.87,41.45,152.37z"/>
	<path class="st0" d="M69.23,17.2H2.02V0h109.48v13.73L27.53,57.96h83.97v17.2H2.02V52.9L69.23,17.2z"/>
</g>
</svg>
