<?xml version="1.0" encoding="utf-8"?>
<!-- Generator: Adobe Illustrator 25.0.0, SVG Export Plug-In . SVG Version: 6.00 Build 0)  -->
<svg version="1.1" id="Layer_1" xmlns="http://www.w3.org/2000/svg" xmlns:xlink="http://www.w3.org/1999/xlink" x="0px" y="0px"
	 viewBox="0 0 330 294" style="enable-background:new 0 0 330 294;" xml:space="preserve">
<style type="text/css">
	.st0{fill:#F5918B;}
	.st1{fill:#EC665E;}
	.st2{enable-background:new    ;}
</style>
<g>
	<polygon class="st0" points="88.35,284 11.46,147 88.35,10 241.64,10 318.53,147 241.64,284 	"/>
	<path class="st1" d="M235.79,20l71.28,127l-71.28,127H94.21L22.93,147L94.21,20H235.79 M247.5,0h-165L0,147l82.5,147h165L330,147
		L247.5,0L247.5,0z"/>
</g>
<g class="st2">
	<path d="M66.62,141.73c-0.83-3.9-2.55-5.85-5.18-5.85c-2.78,0-4.73,1.58-5.85,4.74c-0.62,1.77-0.93,3.83-0.93,6.21
		c0,5.71,1.21,9.27,3.64,10.66c0.71,0.41,1.47,0.61,2.27,0.61s1.48-0.08,2.03-0.24c0.55-0.16,1.02-0.36,1.39-0.61
		c0.37-0.25,0.7-0.57,0.98-0.96c0.28-0.39,0.5-0.79,0.65-1.18c0.15-0.39,0.27-0.86,0.36-1.41c0.14-0.83,0.22-1.82,0.25-2.99h-5.54
		v-3.85H70.7v14.57H67v-2.29c-0.81,0.99-1.7,1.7-2.67,2.11c-1.04,0.45-2.24,0.67-3.6,0.67s-2.6-0.28-3.73-0.83
		c-1.13-0.55-2.11-1.31-2.93-2.28c-0.83-0.96-1.54-2.09-2.15-3.37c-1.21-2.55-1.81-5.44-1.81-8.67c0-3.08,0.58-5.85,1.73-8.3
		c1.28-2.7,3.05-4.57,5.31-5.6c1.23-0.56,2.42-0.84,3.55-0.84c1.14,0,2.04,0.08,2.72,0.24c0.68,0.16,1.37,0.44,2.08,0.86
		c0.7,0.41,1.34,0.95,1.91,1.61c1.26,1.44,2.29,3.52,3.08,6.27L66.62,141.73z"/>
	<path d="M75.31,161.44v-28.85h16.51v3.83H79.86v7.98h8.32v3.85h-8.32v9.1h12.68v4.09H75.31z"/>
	<path d="M93.55,136.42v-3.83h20.13v3.83h-7.79v25.02h-4.55v-25.02H93.55z"/>
	<path d="M124.29,161.44v-28.85h4.55v28.85H124.29z"/>
	<path d="M148.18,150.3v-17.71h4.53v28.85h-3.62l-11.65-22.13v22.13h-4.53v-28.85h5.87L148.18,150.3z"/>
	<path d="M165.46,151.62l5.66-19.02h4.82l-8.57,28.85h-3.81l-8.57-28.85h4.82L165.46,151.62z"/>
	<path d="M176.71,150c-0.13-0.96-0.19-1.92-0.19-2.88s0.06-1.91,0.17-2.88s0.3-1.95,0.57-2.94c0.27-1,0.6-1.94,0.99-2.83
		s0.89-1.73,1.5-2.52c0.6-0.79,1.28-1.48,2.03-2.05c1.61-1.23,3.57-1.85,5.88-1.85c3.17,0,5.71,1.31,7.62,3.92
		c2.06,2.84,3.08,6.56,3.08,11.14c0,4.67-0.99,8.35-2.97,11.04c-1.85,2.51-4.43,3.77-7.73,3.77c-3.14,0-5.71-1.26-7.71-3.79
		C178.25,156.02,177.17,153.3,176.71,150z M181.42,142.98c-0.13,0.75-0.23,1.46-0.28,2.12s-0.08,1.34-0.08,2.03
		c0,0.69,0.03,1.37,0.08,2.05s0.14,1.38,0.28,2.13c0.13,0.75,0.3,1.44,0.5,2.08s0.48,1.25,0.83,1.84c0.35,0.59,0.74,1.09,1.17,1.51
		c0.98,0.91,2.21,1.37,3.69,1.37c4.13,0,6.19-3.67,6.19-11.01c0-5.98-1.4-9.58-4.19-10.82c-0.61-0.27-1.29-0.4-2.03-0.4
		c-0.74,0-1.43,0.13-2.06,0.4c-0.63,0.27-1.16,0.62-1.6,1.06c-0.44,0.44-0.83,0.97-1.18,1.59c-0.35,0.62-0.62,1.26-0.83,1.92
		C181.73,141.52,181.56,142.23,181.42,142.98z"/>
	<path d="M201.92,161.44v-28.85h4.55v24.47h11.92v4.38H201.92z"/>
	<path d="M226.39,151.62l5.66-19.02h4.82l-8.57,28.85h-3.81l-8.57-28.85h4.82L226.39,151.62z"/>
	<path d="M239.25,161.44v-28.85h16.51v3.83H243.8v7.98h8.32v3.85h-8.32v9.1h12.68v4.09H239.25z"/>
	<path d="M259.8,161.44v-28.85h6.8c6.96,0,11.16,2.8,12.61,8.4c0.46,1.79,0.69,3.67,0.69,5.66s-0.14,3.65-0.41,5.01
		c-0.27,1.36-0.74,2.65-1.4,3.87s-1.48,2.26-2.47,3.12c-2.17,1.87-5.17,2.8-9.01,2.8H259.8z M264.35,157.61h2.74
		c2.65,0,4.7-0.96,6.13-2.88c1.41-1.9,2.11-4.41,2.11-7.52c0-5.93-1.9-9.42-5.69-10.47c-0.77-0.21-1.62-0.32-2.55-0.32h-2.74V157.61
		z"/>
</g>
</svg>
