<?xml version="1.0" encoding="utf-8"?>
<!-- Generator: Adobe Illustrator 25.0.0, SVG Export Plug-In . SVG Version: 6.00 Build 0)  -->
<svg version="1.1" id="Layer_1" xmlns="http://www.w3.org/2000/svg" xmlns:xlink="http://www.w3.org/1999/xlink" x="0px" y="0px"
	 viewBox="0 0 113.38 871.96" style="enable-background:new 0 0 113.38 871.96;" xml:space="preserve">
<g>
	<path d="M36.71,809.3c-14.79,3.13-22.19,9.68-22.19,19.66c0,10.55,6,17.95,17.99,22.19c6.7,2.36,14.55,3.54,23.56,3.54
		c21.68,0,35.17-4.6,40.47-13.8c1.54-2.7,2.31-5.56,2.31-8.6s-0.3-5.6-0.9-7.7s-1.37-3.85-2.31-5.28c-0.94-1.42-2.16-2.66-3.65-3.72
		c-1.49-1.06-2.99-1.88-4.48-2.46c-1.49-0.58-3.28-1.04-5.35-1.37c-3.13-0.53-6.91-0.84-11.35-0.94v21.03h-14.6v-38.01h55.28v14.02
		h-8.67c3.76,3.08,6.43,6.46,8.02,10.12c1.69,3.95,2.53,8.5,2.53,13.66c0,5.16-1.05,9.88-3.14,14.16c-2.1,4.29-4.97,8-8.64,11.13
		c-3.66,3.13-7.92,5.85-12.79,8.17c-9.68,4.58-20.64,6.87-32.88,6.87c-11.71,0-22.21-2.19-31.51-6.58
		c-10.26-4.87-17.34-11.59-21.25-20.16C1.06,840.55,0,836.05,0,831.74c0-4.31,0.3-7.76,0.9-10.33c0.6-2.58,1.69-5.2,3.25-7.88
		s3.6-5.09,6.11-7.26c5.45-4.77,13.37-8.67,23.78-11.71L36.71,809.3z"/>
	<path d="M111.51,776.35H2.02V713.7h14.53v45.38h30.28V727.5h14.6v31.58h34.54v-48.13h15.54V776.35z"/>
	<path d="M16.55,707.12H2.02v-76.38h14.53v29.56h94.96v17.27H16.55V707.12z"/>
	<path d="M111.51,590.48H2.02v-17.27h109.48V590.48z"/>
	<path d="M69.23,499.79H2.02v-17.2h109.48v13.73l-83.97,44.23h83.97v17.2H2.02v-22.26L69.23,499.79z"/>
	<path d="M74.22,434.24L2.02,412.78V394.5l109.48,32.52v14.45L2.02,473.99v-18.28L74.22,434.24z"/>
	<path d="M68.07,391.54c-3.66,0.48-7.3,0.72-10.91,0.72s-7.25-0.22-10.91-0.65c-3.66-0.43-7.38-1.16-11.16-2.17
		s-7.36-2.26-10.73-3.76c-3.37-1.49-6.56-3.38-9.57-5.67c-3.01-2.29-5.6-4.85-7.77-7.7C2.34,366.19,0,358.75,0,349.98
		c0-12.04,4.96-21.68,14.89-28.91c10.79-7.8,24.88-11.71,42.28-11.71c17.73,0,31.7,3.76,41.91,11.27
		c9.54,7.03,14.31,16.81,14.31,29.34c0,11.9-4.79,21.66-14.38,29.27C90.91,385.71,80.6,389.8,68.07,391.54z M41.45,373.65
		c2.87,0.51,5.55,0.86,8.06,1.05c2.51,0.19,5.07,0.29,7.7,0.29s5.21-0.1,7.77-0.29c2.55-0.19,5.25-0.54,8.09-1.05
		c2.84-0.51,5.47-1.14,7.88-1.92c2.41-0.77,4.73-1.82,6.97-3.14c2.24-1.32,4.15-2.81,5.74-4.44c3.47-3.71,5.2-8.38,5.2-14.02
		c0-15.66-13.92-23.49-41.77-23.49c-22.69,0-36.37,5.3-41.05,15.9c-1.01,2.31-1.52,4.88-1.52,7.7s0.51,5.42,1.52,7.8
		s2.35,4.41,4.01,6.07s3.67,3.16,6.03,4.48c2.36,1.33,4.79,2.37,7.3,3.14C35.89,372.51,38.58,373.14,41.45,373.65z"/>
	<path d="M111.51,295.86H2.02v-17.27h92.86v-45.24h16.62V295.86z"/>
	<path d="M74.22,202.99L2.02,181.53v-18.28l109.48,32.52v14.45L2.02,242.74v-18.28L74.22,202.99z"/>
	<path d="M111.51,154.21H2.02V91.56h14.53v45.38h30.28v-31.58h14.6v31.58h34.54V88.81h15.54V154.21z"/>
	<path d="M111.51,76.24H2.02v-25.8c0-26.4,10.62-42.35,31.87-47.84C40.69,0.87,47.84,0,55.36,0s13.85,0.52,19.01,1.55
		c5.16,1.04,10.04,2.81,14.67,5.31c4.62,2.51,8.58,5.64,11.85,9.39c7.08,8.24,10.62,19.63,10.62,34.18V76.24z M96.98,58.97V48.56
		c0-10.07-3.64-17.83-10.91-23.27c-7.23-5.35-16.74-8.02-28.54-8.02c-22.5,0-35.75,7.2-39.75,21.61c-0.82,2.94-1.23,6.17-1.23,9.68
		v10.41H96.98z"/>
</g>
</svg>
