<?xml version="1.0" encoding="utf-8"?>
<!-- Generator: Adobe Illustrator 25.0.0, SVG Export Plug-In . SVG Version: 6.00 Build 0)  -->
<svg version="1.1" id="Layer_1" xmlns="http://www.w3.org/2000/svg" xmlns:xlink="http://www.w3.org/1999/xlink" x="0px" y="0px"
	 viewBox="0 0 123 123" style="enable-background:new 0 0 123 123;" xml:space="preserve">
<g>
	<polygon points="50.84,61.41 31.95,80.29 31.95,42.68 	"/>
	<path d="M69.47,64.27l18.8,18.8H34.72l18.9-18.9l6.63,6.56c0.76,0.76,2,0.76,2.76,0L69.47,64.27z"/>
	<polygon points="61.62,66.57 34.74,39.93 88.27,39.93 	"/>
	<polygon points="72.25,61.5 91.04,42.7 91.04,80.29 	"/>
	<path d="M61.5,0C27.53,0,0,27.53,0,61.5C0,95.46,27.53,123,61.5,123c33.96,0,61.5-27.54,61.5-61.5C123,27.53,95.46,0,61.5,0z
		 M94.97,81.11c0,3.25-2.66,5.88-5.89,5.88H33.91c-3.25,0-5.88-2.65-5.88-5.88V41.89c0-3.25,2.64-5.89,5.88-5.89h55.17
		c3.25,0,5.89,2.65,5.89,5.89V81.11z"/>
</g>
</svg>
