<?xml version="1.0" encoding="utf-8"?>
<!-- Generator: Adobe Illustrator 25.0.0, SVG Export Plug-In . SVG Version: 6.00 Build 0)  -->
<svg version="1.1" id="Layer_1" xmlns="http://www.w3.org/2000/svg" xmlns:xlink="http://www.w3.org/1999/xlink" x="0px" y="0px"
	 viewBox="0 0 45.8 39.67" style="enable-background:new 0 0 45.8 39.67;" xml:space="preserve">
<style type="text/css">
	.st0{fill:#3EA481;}
	.st1{fill:#FFFFFF;}
</style>
<g>
	<polygon class="st0" points="34.35,0 11.45,0 0,19.83 11.45,39.67 34.35,39.67 45.8,19.83 	"/>
</g>
<g>
	<g>
		<path class="st1" d="M27.16,21.89c0.89-1.32,1.4-2.9,1.4-4.6c0-4.55-3.71-8.26-8.26-8.26s-8.26,3.71-8.26,8.26
			s3.71,8.26,8.26,8.26c1.74,0,3.35-0.54,4.68-1.46l6.58,6.55l2.19-2.19L27.16,21.89z M20.3,23.22c-3.27,0-5.93-2.66-5.93-5.93
			c0-3.27,2.66-5.93,5.93-5.93s5.93,2.66,5.93,5.93S23.57,23.22,20.3,23.22z"/>
	</g>
</g>
</svg>
