<?xml version="1.0" encoding="utf-8"?>
<!-- Generator: Adobe Illustrator 25.0.1, SVG Export Plug-In . SVG Version: 6.00 Build 0)  -->
<svg version="1.1" id="Layer_1" xmlns="http://www.w3.org/2000/svg" xmlns:xlink="http://www.w3.org/1999/xlink" x="0px" y="0px"
	 viewBox="0 0 107.3 374.4" style="enable-background:new 0 0 107.3 374.4;" xml:space="preserve">
<style type="text/css">
	.st0{fill:#5E795D;}
</style>
<g>
	<path class="st0" d="M105.5,374.4H1.9v-16.3h87.8v-42.8h15.7V374.4z"/>
	<path class="st0" d="M64.4,312.2c-3.5,0.5-6.9,0.7-10.3,0.7c-3.4,0-6.9-0.2-10.3-0.6c-3.5-0.4-7-1.1-10.6-2.1
		c-3.6-1-7-2.1-10.2-3.6c-3.2-1.4-6.2-3.2-9.1-5.4c-2.8-2.2-5.3-4.6-7.3-7.3C2.2,288.2,0,281.2,0,272.9c0-11.4,4.7-20.5,14.1-27.3
		c10.2-7.4,23.5-11.1,40-11.1c16.8,0,30,3.6,39.6,10.7c9,6.7,13.5,15.9,13.5,27.8c0,11.3-4.5,20.5-13.6,27.7
		C86,306.7,76.2,310.6,64.4,312.2z M39.2,295.3c2.7,0.5,5.3,0.8,7.6,1c2.4,0.2,4.8,0.3,7.3,0.3c2.5,0,4.9-0.1,7.3-0.3
		c2.4-0.2,5-0.5,7.7-1s5.2-1.1,7.5-1.8c2.3-0.7,4.5-1.7,6.6-3c2.1-1.3,3.9-2.7,5.4-4.2c3.3-3.5,4.9-7.9,4.9-13.3
		c0-14.8-13.2-22.2-39.5-22.2c-21.5,0-34.4,5-38.8,15c-1,2.2-1.4,4.6-1.4,7.3s0.5,5.1,1.4,7.4s2.2,4.2,3.8,5.7s3.5,3,5.7,4.2
		c2.2,1.3,4.5,2.2,6.9,3C34,294.2,36.5,294.8,39.2,295.3z"/>
	<path class="st0" d="M34.7,166.6c-14,3-21,9.2-21,18.6c0,10,5.7,17,17,21c6.3,2.2,13.8,3.3,22.3,3.3c20.5,0,33.3-4.4,38.3-13.1
		c1.5-2.6,2.2-5.3,2.2-8.1s-0.3-5.3-0.9-7.3c-0.6-2-1.3-3.6-2.2-5c-0.9-1.3-2-2.5-3.5-3.5c-1.4-1-2.8-1.8-4.2-2.3s-3.1-1-5.1-1.3
		c-3-0.5-6.5-0.8-10.7-0.9v19.9H53.2v-36h52.3v13.3h-8.2c3.6,2.9,6.1,6.1,7.6,9.6c1.6,3.7,2.4,8,2.4,12.9c0,4.9-1,9.3-3,13.4
		c-2,4.1-4.7,7.6-8.2,10.5c-3.5,3-7.5,5.5-12.1,7.7c-9.2,4.3-19.5,6.5-31.1,6.5c-11.1,0-21-2.1-29.8-6.2c-9.7-4.6-16.4-11-20.1-19.1
		c-2-4.4-3-8.7-3-12.7c0-4.1,0.3-7.3,0.9-9.8c0.6-2.4,1.6-4.9,3.1-7.5c1.5-2.5,3.4-4.8,5.8-6.9c5.2-4.5,12.6-8.2,22.5-11.1
		L34.7,166.6z"/>
	<path class="st0" d="M105.5,102.1H1.9V85.7h103.6V102.1z"/>
	<path class="st0" d="M65.5,16.3H1.9V0h103.6v13L26,54.8h79.4v16.3H1.9V50L65.5,16.3z"/>
</g>
</svg>
