<?xml version="1.0" encoding="utf-8"?>
<!-- Generator: Adobe Illustrator 25.0.0, SVG Export Plug-In . SVG Version: 6.00 Build 0)  -->
<svg version="1.1" id="Layer_1" xmlns="http://www.w3.org/2000/svg" xmlns:xlink="http://www.w3.org/1999/xlink" x="0px" y="0px"
	 viewBox="0 0 113.37 351.19" style="enable-background:new 0 0 113.37 351.19;" xml:space="preserve">
<style type="text/css">
	.st0{fill:#C8DCC7;}
</style>
<g>
	<path class="st0" d="M44.12,57.96h67.21v17.2H1.84V61.43L85.81,17.2H1.84V0h109.49v22.26L44.12,57.96z"/>
	<path class="st0" d="M1.84,92.5h109.49v62.65H96.8v-45.38H66.52v31.58h-14.6v-31.58H17.38v48.13H1.84V92.5z"/>
	<path class="st0" d="M111.33,161.73v17.85l-73.5,16.04v0.65l73.49,15.75v16.33l-73.49,15.47v0.87l73.49,16.04v17.34L1.84,252.71
		v-16.12l76.38-16.04v-0.72L1.84,203.5v-16.4L111.33,161.73z"/>
	<path class="st0" d="M29.88,279.96l4.55,13.88c0,0.05-0.36,0.14-1.08,0.29s-1.67,0.4-2.85,0.76s-2.48,0.87-3.9,1.52
		s-2.84,1.6-4.26,2.85s-2.71,2.72-3.87,4.41c-2.65,3.76-3.97,8.43-3.97,14.02s1.37,9.7,4.12,12.32s6.01,3.94,9.79,3.94
		s6.84-0.39,9.18-1.16s4.37-2.12,6.11-4.05c2.89-3.23,5.49-8.82,7.8-16.77c4.09-14.02,10.43-23.03,19.01-27.03
		c4.48-2.07,9.76-3.11,15.83-3.11c5.11,0,10.09,1.81,14.96,5.42c8.05,6.31,12.07,15.27,12.07,26.88c0,9.2-2.77,16.74-8.31,22.62
		c-3.9,4.19-8.82,7.32-14.74,9.39l-3.83,1.37c-1.16,0.43-1.9,0.72-2.24,0.87l-4.99-14.09c10.12-3.18,16.36-8.14,18.72-14.89
		c0.58-1.69,0.87-3.45,0.87-5.28c0-10.02-5.16-15.03-15.46-15.03c-4.72,0-8.33,1.4-10.84,4.19c-2.17,2.31-3.88,5.35-5.13,9.11
		l-1.16,3.47c-0.67,1.97-1.04,3.06-1.08,3.25l-1.08,3.18c-2.89,8.24-5.44,13.8-7.66,16.69c-3.28,4.24-6.29,7.01-9.03,8.31
		c-5.64,2.6-11.59,3.9-17.85,3.9c-4.91,0-9.9-1.4-14.96-4.19c-6.79-3.76-11.25-9.71-13.37-17.85C0.41,326.02,0,322.6,0,318.89
		c0-3.71,0.34-7.19,1.01-10.44s1.59-6.06,2.75-8.42c1.16-2.36,2.48-4.53,3.97-6.5c1.49-1.98,3.07-3.64,4.73-4.99
		c1.66-1.35,3.32-2.53,4.99-3.54s3.24-1.82,4.73-2.42c1.49-0.6,2.82-1.1,3.97-1.48c1.16-0.39,2.07-0.66,2.75-0.83
		C29.55,280.11,29.88,280.01,29.88,279.96z"/>
</g>
</svg>
