<?xml version="1.0" encoding="utf-8"?>
<!-- Generator: Adobe Illustrator 25.0.0, SVG Export Plug-In . SVG Version: 6.00 Build 0)  -->
<svg version="1.1" id="Layer_1" xmlns="http://www.w3.org/2000/svg" xmlns:xlink="http://www.w3.org/1999/xlink" x="0px" y="0px"
	 viewBox="0 0 113.37 351.19" style="enable-background:new 0 0 113.37 351.19;" xml:space="preserve">
<style type="text/css">
	.st0{fill:#F5C85F;}
</style>
<g>
	<path class="st0" d="M69.24,293.23H2.03v-17.2h109.48v13.73l-83.97,44.23h83.97v17.2H2.03v-22.26L69.24,293.23z"/>
	<path class="st0" d="M111.51,258.69H2.03v-62.65h14.53v45.38h30.28v-31.58h14.6v31.58h34.54v-48.13h15.54L111.51,258.69
		L111.51,258.69z"/>
	<path class="st0" d="M2.03,189.46v-17.85l73.49-16.04v-0.65L2.03,139.17v-16.33l73.49-15.46v-0.87L2.03,90.46V73.11l109.48,25.37
		v16.12l-76.38,16.04v0.72l76.38,16.33v16.4L2.03,189.46z"/>
	<path class="st0" d="M83.47,71.23l-4.55-13.88c0-0.05,0.36-0.14,1.08-0.29s1.67-0.4,2.85-0.76s2.48-0.87,3.9-1.52
		s2.84-1.6,4.26-2.85c1.42-1.25,2.71-2.72,3.87-4.41c2.65-3.76,3.97-8.43,3.97-14.02s-1.37-9.7-4.12-12.32s-6.01-3.94-9.79-3.94
		s-6.84,0.39-9.18,1.16c-2.34,0.77-4.37,2.12-6.11,4.05c-2.89,3.23-5.49,8.82-7.8,16.77c-4.08,14.02-10.42,23.03-18.99,27.03
		c-4.48,2.07-9.76,3.11-15.83,3.11c-5.11,0-10.09-1.81-14.96-5.42C4.02,57.63,0,48.67,0,37.06c0-9.2,2.77-16.74,8.31-22.62
		c3.9-4.19,8.82-7.32,14.74-9.39l3.83-1.37c1.16-0.43,1.9-0.72,2.24-0.87l4.99,14.09c-10.12,3.18-16.36,8.14-18.72,14.89
		c-0.58,1.69-0.87,3.45-0.87,5.28c0,10.02,5.16,15.03,15.46,15.03c4.72,0,8.33-1.4,10.84-4.19c2.17-2.31,3.88-5.35,5.13-9.11
		l1.16-3.47c0.67-1.97,1.04-3.06,1.08-3.25l1.08-3.18c2.89-8.24,5.44-13.8,7.66-16.69c3.28-4.24,6.29-7.01,9.03-8.31
		C71.6,1.3,77.55,0,83.81,0c4.91,0,9.9,1.4,14.96,4.19c6.79,3.76,11.25,9.71,13.37,17.85c0.82,3.13,1.23,6.55,1.23,10.26
		c0,3.71-0.34,7.19-1.01,10.44s-1.59,6.06-2.75,8.42s-2.48,4.53-3.97,6.5c-1.49,1.98-3.07,3.64-4.73,4.99s-3.32,2.53-4.99,3.54
		s-3.24,1.82-4.73,2.42c-1.49,0.6-2.82,1.1-3.97,1.48c-1.16,0.39-2.07,0.66-2.75,0.83C83.81,71.08,83.47,71.19,83.47,71.23z"/>
</g>
</svg>
