<?xml version="1.0" encoding="utf-8"?>
<!-- Generator: Adobe Illustrator 25.0.0, SVG Export Plug-In . SVG Version: 6.00 Build 0)  -->
<svg version="1.1" id="Layer_1" xmlns="http://www.w3.org/2000/svg" xmlns:xlink="http://www.w3.org/1999/xlink" x="0px" y="0px"
	 viewBox="0 0 330 294" style="enable-background:new 0 0 330 294;" xml:space="preserve">
<style type="text/css">
	.st0{fill:#FCEBC1;}
	.st1{fill:#3EA481;}
	.st2{enable-background:new    ;}
</style>
<g>
	<polygon class="st0" points="88.2,283.5 11.3,146.5 88.2,9.5 241.5,9.5 318.4,146.5 241.5,283.5 	"/>
	<path class="st1" d="M235.6,19.5l71.3,127l-71.3,127H94l-71.3-127L94,19.5H235.6 M247.3-0.5h-165l-82.5,147l82.5,147h165l82.5-147
		L247.3-0.5L247.3-0.5z"/>
</g>
<g class="st2">
	<path d="M122.9,99.1V81.4h4.5v28.8h-3.6l-11.7-22.1v22.1h-4.5V81.4h5.9L122.9,99.1z"/>
	<path d="M131,98.8c-0.1-1-0.2-1.9-0.2-2.9s0.1-1.9,0.2-2.9s0.3-1.9,0.6-2.9c0.3-1,0.6-1.9,1-2.8s0.9-1.7,1.5-2.5
		c0.6-0.8,1.3-1.5,2-2c1.6-1.2,3.6-1.8,5.9-1.8c3.2,0,5.7,1.3,7.6,3.9c2.1,2.8,3.1,6.6,3.1,11.1c0,4.7-1,8.4-3,11
		c-1.9,2.5-4.4,3.8-7.7,3.8c-3.1,0-5.7-1.3-7.7-3.8C132.6,104.8,131.5,102.1,131,98.8z M135.7,91.8c-0.1,0.8-0.2,1.5-0.3,2.1
		s-0.1,1.3-0.1,2c0,0.7,0,1.4,0.1,2s0.1,1.4,0.3,2.1c0.1,0.7,0.3,1.4,0.5,2.1s0.5,1.2,0.8,1.8c0.3,0.6,0.7,1.1,1.2,1.5
		c1,0.9,2.2,1.4,3.7,1.4c4.1,0,6.2-3.7,6.2-11c0-6-1.4-9.6-4.2-10.8c-0.6-0.3-1.3-0.4-2-0.4c-0.7,0-1.4,0.1-2.1,0.4
		c-0.6,0.3-1.2,0.6-1.6,1.1c-0.4,0.4-0.8,1-1.2,1.6c-0.3,0.6-0.6,1.3-0.8,1.9C136,90.3,135.9,91,135.7,91.8z"/>
	<path d="M152.9,85.2v-3.8H173v3.8h-7.8v25h-4.6v-25H152.9z"/>
	<path d="M175.4,110.2V81.4h16.5v3.8h-12v8h8.3V97H180v9.1h12.7v4.1H175.4z"/>
	<path d="M193.8,102.8l3.7-1.2c0,0,0,0.1,0.1,0.3s0.1,0.4,0.2,0.8c0.1,0.3,0.2,0.7,0.4,1c0.2,0.4,0.4,0.7,0.8,1.1
		c0.3,0.4,0.7,0.7,1.2,1c1,0.7,2.2,1,3.7,1s2.6-0.4,3.2-1.1c0.7-0.7,1-1.6,1-2.6c0-1-0.1-1.8-0.3-2.4c-0.2-0.6-0.6-1.2-1.1-1.6
		c-0.9-0.8-2.3-1.4-4.4-2.1c-3.7-1.1-6.1-2.7-7.1-5c-0.5-1.2-0.8-2.6-0.8-4.2c0-1.3,0.5-2.7,1.4-3.9c1.7-2.1,4-3.2,7.1-3.2
		c2.4,0,4.4,0.7,6,2.2c1.1,1,1.9,2.3,2.5,3.9l0.4,1c0.1,0.3,0.2,0.5,0.2,0.6l-3.7,1.3c-0.8-2.7-2.1-4.3-3.9-4.9
		c-0.4-0.2-0.9-0.2-1.4-0.2c-2.6,0-4,1.4-4,4.1c0,1.2,0.4,2.2,1.1,2.9c0.6,0.6,1.4,1,2.4,1.4l0.9,0.3c0.5,0.2,0.8,0.3,0.9,0.3
		l0.8,0.3c2.2,0.8,3.6,1.4,4.4,2c1.1,0.9,1.8,1.7,2.2,2.4c0.7,1.5,1,3.1,1,4.7c0,1.3-0.4,2.6-1.1,3.9c-1,1.8-2.6,3-4.7,3.5
		c-0.8,0.2-1.7,0.3-2.7,0.3s-1.9-0.1-2.8-0.3c-0.9-0.2-1.6-0.4-2.2-0.7s-1.2-0.7-1.7-1c-0.5-0.4-1-0.8-1.3-1.2
		c-0.4-0.4-0.7-0.9-0.9-1.3c-0.3-0.4-0.5-0.9-0.6-1.2c-0.2-0.4-0.3-0.7-0.4-1s-0.2-0.5-0.2-0.7C193.8,102.9,193.8,102.8,193.8,102.8
		z"/>
</g>
<g class="st2">
	<path d="M120.4,157v-28.8h16.5v3.8h-12v8h8.3v3.8h-8.3V157H120.4z"/>
	<path d="M140.2,157v-28.8h9.7c4.5,0,7.3,1.6,8.5,4.8c0.3,0.9,0.5,1.9,0.5,2.9s-0.1,1.9-0.3,2.7s-0.5,1.6-1,2.3
		c-1,1.5-2.4,2.5-4.2,2.9l5.3,13.3H154l-5-12.5h-4.3V157H140.2z M144.8,140.7h4.8c1.3,0,2.4-0.4,3.3-1.1c0.9-0.8,1.4-2,1.4-3.6
		c0-2.7-2.1-4-6.4-4h-3.2V140.7z"/>
	<path d="M160.6,145.6c-0.1-1-0.2-1.9-0.2-2.9s0.1-1.9,0.2-2.9s0.3-1.9,0.6-2.9c0.3-1,0.6-1.9,1-2.8s0.9-1.7,1.5-2.5
		c0.6-0.8,1.3-1.5,2-2c1.6-1.2,3.6-1.8,5.9-1.8c3.2,0,5.7,1.3,7.6,3.9c2.1,2.8,3.1,6.6,3.1,11.1c0,4.7-1,8.4-3,11
		c-1.9,2.5-4.4,3.8-7.7,3.8c-3.1,0-5.7-1.3-7.7-3.8C162.1,151.6,161.1,148.9,160.6,145.6z M165.3,138.6c-0.1,0.8-0.2,1.5-0.3,2.1
		c-0.1,0.7-0.1,1.3-0.1,2c0,0.7,0,1.4,0.1,2c0.1,0.7,0.1,1.4,0.3,2.1c0.1,0.7,0.3,1.4,0.5,2.1s0.5,1.2,0.8,1.8
		c0.3,0.6,0.7,1.1,1.2,1.5c1,0.9,2.2,1.4,3.7,1.4c4.1,0,6.2-3.7,6.2-11c0-6-1.4-9.6-4.2-10.8c-0.6-0.3-1.3-0.4-2-0.4
		c-0.7,0-1.4,0.1-2.1,0.4c-0.6,0.3-1.2,0.6-1.6,1.1c-0.4,0.4-0.8,1-1.2,1.6c-0.3,0.6-0.6,1.3-0.8,1.9
		C165.6,137.1,165.4,137.8,165.3,138.6z"/>
	<path d="M190.1,137.5V157h-4.5v-28.8h6.2l5.5,19.9h0.2l5.5-19.9h6.2V157h-4.5v-19.5h-0.2l-5.4,19.5h-3.5l-5.4-19.5H190.1z"/>
</g>
<g class="st2">
	<path d="M98,196.4l3.7-1.2c0,0,0,0.1,0.1,0.3s0.1,0.4,0.2,0.8c0.1,0.3,0.2,0.7,0.4,1c0.2,0.4,0.4,0.7,0.8,1.1
		c0.3,0.4,0.7,0.7,1.2,1c1,0.7,2.2,1,3.7,1s2.6-0.4,3.2-1.1c0.7-0.7,1-1.6,1-2.6c0-1-0.1-1.8-0.3-2.4c-0.2-0.6-0.6-1.2-1.1-1.6
		c-0.9-0.8-2.3-1.4-4.4-2.1c-3.7-1.1-6.1-2.7-7.1-5c-0.5-1.2-0.8-2.6-0.8-4.2c0-1.3,0.5-2.7,1.4-3.9c1.7-2.1,4-3.2,7.1-3.2
		c2.4,0,4.4,0.7,6,2.2c1.1,1,1.9,2.3,2.5,3.9l0.4,1c0.1,0.3,0.2,0.5,0.2,0.6l-3.7,1.3c-0.8-2.7-2.1-4.3-3.9-4.9
		c-0.4-0.2-0.9-0.2-1.4-0.2c-2.6,0-4,1.4-4,4.1c0,1.2,0.4,2.2,1.1,2.9c0.6,0.6,1.4,1,2.4,1.4l0.9,0.3c0.5,0.2,0.8,0.3,0.9,0.3
		l0.8,0.3c2.2,0.8,3.6,1.4,4.4,2c1.1,0.9,1.8,1.7,2.2,2.4c0.7,1.5,1,3.1,1,4.7c0,1.3-0.4,2.6-1.1,3.9c-1,1.8-2.6,3-4.7,3.5
		c-0.8,0.2-1.7,0.3-2.7,0.3s-1.9-0.1-2.8-0.3c-0.9-0.2-1.6-0.4-2.2-0.7s-1.2-0.7-1.7-1c-0.5-0.4-1-0.8-1.3-1.2
		c-0.4-0.4-0.7-0.9-0.9-1.3c-0.3-0.4-0.5-0.9-0.6-1.2c-0.2-0.4-0.3-0.7-0.4-1s-0.2-0.5-0.2-0.7C98.1,196.5,98,196.4,98,196.4z"/>
	<path d="M118.9,193c-0.2-1.2-0.3-2.4-0.3-3.6s0.1-2.4,0.3-3.6c0.2-1.2,0.5-2.3,0.8-3.5c0.4-1.1,0.9-2.2,1.5-3.1
		c0.6-0.9,1.3-1.8,2.1-2.5c1.7-1.5,3.7-2.3,6.2-2.3c3.1,0,5.6,1.6,7.4,4.7c0.9,1.5,1.5,3.1,1.8,4.7v0l-4,1.1c-0.2-1.4-0.4-2.4-0.7-3
		c-0.3-0.6-0.6-1.2-0.8-1.6c-0.3-0.4-0.6-0.8-0.9-1.1c-0.8-0.6-1.7-1-2.7-1c-1,0-1.9,0.2-2.6,0.7c-0.7,0.5-1.3,1-1.8,1.8
		c-0.5,0.7-0.8,1.6-1.1,2.6c-0.6,1.8-0.8,3.8-0.8,6.1c0,6,1.4,9.6,4.3,10.7c0.6,0.3,1.3,0.4,1.9,0.4s1.3-0.1,1.8-0.3
		c0.5-0.2,1-0.4,1.4-0.7c0.4-0.3,0.7-0.6,1-1c0.3-0.4,0.5-0.8,0.7-1.2c0.2-0.4,0.3-0.8,0.4-1.2c0.2-0.7,0.3-1.4,0.3-2.1l4.2,0.6
		c-0.6,2.4-1.6,4.6-3,6.3c-1.8,2.2-4.1,3.4-6.8,3.4c-3.4,0-6-1.6-8.1-4.8C120.1,197.8,119.3,195.6,118.9,193z"/>
	<path d="M142.2,203.8V175h4.6v11.8h10.5V175h4.6v28.8h-4.6v-13.2h-10.5v13.2H142.2z"/>
	<path d="M165.6,192.4c-0.1-1-0.2-1.9-0.2-2.9s0.1-1.9,0.2-2.9s0.3-1.9,0.6-2.9c0.3-1,0.6-1.9,1-2.8s0.9-1.7,1.5-2.5
		c0.6-0.8,1.3-1.5,2-2c1.6-1.2,3.6-1.8,5.9-1.8c3.2,0,5.7,1.3,7.6,3.9c2.1,2.8,3.1,6.6,3.1,11.1c0,4.7-1,8.4-3,11
		c-1.9,2.5-4.4,3.8-7.7,3.8c-3.1,0-5.7-1.3-7.7-3.8C167.1,198.4,166,195.7,165.6,192.4z M170.3,185.4c-0.1,0.8-0.2,1.5-0.3,2.1
		s-0.1,1.3-0.1,2c0,0.7,0,1.4,0.1,2s0.1,1.4,0.3,2.1c0.1,0.7,0.3,1.4,0.5,2.1s0.5,1.2,0.8,1.8c0.3,0.6,0.7,1.1,1.2,1.5
		c1,0.9,2.2,1.4,3.7,1.4c4.1,0,6.2-3.7,6.2-11c0-6-1.4-9.6-4.2-10.8c-0.6-0.3-1.3-0.4-2-0.4c-0.7,0-1.4,0.1-2.1,0.4
		c-0.6,0.3-1.2,0.6-1.6,1.1c-0.4,0.4-0.8,1-1.2,1.6c-0.3,0.6-0.6,1.3-0.8,1.9C170.6,183.9,170.4,184.6,170.3,185.4z"/>
	<path d="M189.9,192.4c-0.1-1-0.2-1.9-0.2-2.9s0.1-1.9,0.2-2.9s0.3-1.9,0.6-2.9c0.3-1,0.6-1.9,1-2.8s0.9-1.7,1.5-2.5
		c0.6-0.8,1.3-1.5,2-2c1.6-1.2,3.6-1.8,5.9-1.8c3.2,0,5.7,1.3,7.6,3.9c2.1,2.8,3.1,6.6,3.1,11.1c0,4.7-1,8.4-3,11
		c-1.9,2.5-4.4,3.8-7.7,3.8c-3.1,0-5.7-1.3-7.7-3.8C191.4,198.4,190.3,195.7,189.9,192.4z M194.6,185.4c-0.1,0.8-0.2,1.5-0.3,2.1
		s-0.1,1.3-0.1,2c0,0.7,0,1.4,0.1,2s0.1,1.4,0.3,2.1c0.1,0.7,0.3,1.4,0.5,2.1s0.5,1.2,0.8,1.8c0.3,0.6,0.7,1.1,1.2,1.5
		c1,0.9,2.2,1.4,3.7,1.4c4.1,0,6.2-3.7,6.2-11c0-6-1.4-9.6-4.2-10.8c-0.6-0.3-1.3-0.4-2-0.4c-0.7,0-1.4,0.1-2.1,0.4
		c-0.6,0.3-1.2,0.6-1.6,1.1c-0.4,0.4-0.8,1-1.2,1.6c-0.3,0.6-0.6,1.3-0.8,1.9C194.9,183.9,194.7,184.6,194.6,185.4z"/>
	<path d="M215.1,203.8V175h4.6v24.5h11.9v4.4H215.1z"/>
</g>
</svg>
