<?xml version="1.0" encoding="utf-8"?>
<!-- Generator: Adobe Illustrator 25.0.0, SVG Export Plug-In . SVG Version: 6.00 Build 0)  -->
<svg version="1.1" id="Layer_1" xmlns="http://www.w3.org/2000/svg" xmlns:xlink="http://www.w3.org/1999/xlink" x="0px" y="0px"
	 viewBox="0 0 330 294" style="enable-background:new 0 0 330 294;" xml:space="preserve">
<style type="text/css">
	.st0{fill:#D8BFB1;}
	.st1{fill:#3D718C;}
	.st2{enable-background:new    ;}
</style>
<g>
	<polygon class="st0" points="88.35,284 11.46,147 88.35,10 241.64,10 318.53,147 241.64,284 	"/>
	<path class="st1" d="M235.79,20l71.28,127l-71.28,127H94.21L22.93,147L94.21,20H235.79 M247.5,0h-165L0,147l82.5,147h165L330,147
		L247.5,0L247.5,0z"/>
</g>
<g class="st2">
	<path d="M127.79,103.5V85.79h4.53v28.85h-3.62l-11.65-22.13v22.13h-4.53V85.79h5.87L127.79,103.5z"/>
	<path d="M135.94,103.2c-0.13-0.96-0.19-1.92-0.19-2.88s0.06-1.91,0.17-2.88s0.3-1.95,0.57-2.94c0.27-1,0.6-1.94,0.99-2.83
		s0.89-1.73,1.5-2.52c0.6-0.79,1.28-1.48,2.03-2.05c1.61-1.23,3.57-1.85,5.88-1.85c3.17,0,5.71,1.31,7.62,3.92
		c2.06,2.84,3.08,6.56,3.08,11.14c0,4.67-0.99,8.35-2.97,11.04c-1.85,2.51-4.43,3.77-7.73,3.77c-3.14,0-5.71-1.26-7.71-3.79
		C137.48,109.22,136.4,106.5,135.94,103.2z M140.65,96.18c-0.13,0.75-0.23,1.46-0.28,2.12s-0.08,1.34-0.08,2.03
		c0,0.69,0.03,1.37,0.08,2.05s0.14,1.38,0.28,2.13c0.13,0.75,0.3,1.44,0.5,2.08s0.48,1.25,0.83,1.84c0.35,0.59,0.74,1.09,1.17,1.51
		c0.98,0.91,2.21,1.37,3.69,1.37c4.13,0,6.19-3.67,6.19-11.01c0-5.98-1.4-9.58-4.19-10.82c-0.61-0.27-1.29-0.4-2.03-0.4
		c-0.74,0-1.43,0.13-2.06,0.4c-0.63,0.27-1.16,0.62-1.6,1.06c-0.44,0.44-0.83,0.97-1.18,1.59c-0.35,0.62-0.63,1.26-0.83,1.92
		C140.95,94.72,140.79,95.43,140.65,96.18z"/>
	<path d="M157.8,89.62v-3.83h20.13v3.83h-7.79v25.02h-4.55V89.62H157.8z"/>
	<path d="M180.33,114.64V85.79h16.51v3.83h-11.96v7.98h8.32v3.85h-8.32v9.1h12.68v4.09H180.33z"/>
	<path d="M198.71,107.26l3.66-1.2c0.01,0,0.04,0.09,0.08,0.29s0.1,0.44,0.2,0.75c0.09,0.31,0.23,0.65,0.4,1.03
		c0.17,0.38,0.42,0.75,0.75,1.12c0.33,0.37,0.72,0.71,1.16,1.02c0.99,0.7,2.22,1.05,3.69,1.05s2.55-0.36,3.25-1.09
		c0.69-0.72,1.04-1.58,1.04-2.58c0-1-0.1-1.8-0.3-2.42c-0.2-0.62-0.56-1.15-1.07-1.61c-0.85-0.76-2.32-1.45-4.42-2.06
		c-3.69-1.08-6.07-2.75-7.12-5.01c-0.55-1.18-0.82-2.57-0.82-4.17c0-1.34,0.48-2.66,1.43-3.94c1.66-2.12,4.02-3.18,7.08-3.18
		c2.42,0,4.41,0.73,5.96,2.19c1.1,1.03,1.93,2.32,2.48,3.88l0.36,1.01c0.11,0.3,0.19,0.5,0.23,0.59l-3.71,1.31
		c-0.84-2.67-2.15-4.31-3.92-4.93c-0.44-0.15-0.91-0.23-1.39-0.23c-2.64,0-3.96,1.36-3.96,4.08c0,1.24,0.37,2.2,1.1,2.86
		c0.61,0.57,1.41,1.02,2.4,1.35l0.91,0.3c0.52,0.18,0.81,0.27,0.86,0.29l0.84,0.29c2.17,0.76,3.64,1.44,4.4,2.02
		c1.12,0.86,1.85,1.66,2.19,2.38c0.69,1.49,1.03,3.05,1.03,4.7c0,1.29-0.37,2.61-1.1,3.94c-0.99,1.79-2.56,2.96-4.7,3.52
		c-0.83,0.21-1.73,0.32-2.7,0.32s-1.89-0.09-2.75-0.27c-0.86-0.18-1.6-0.42-2.22-0.72s-1.19-0.65-1.71-1.05
		c-0.52-0.39-0.96-0.81-1.31-1.25c-0.36-0.44-0.67-0.88-0.93-1.31c-0.27-0.44-0.48-0.85-0.64-1.25c-0.16-0.39-0.29-0.74-0.39-1.05
		s-0.17-0.55-0.22-0.72C198.75,107.34,198.72,107.26,198.71,107.26z"/>
</g>
<g class="st2">
	<path d="M125.3,161.44v-28.85h16.51v3.83h-11.96v7.98h8.32v3.85h-8.32v13.2H125.3z"/>
	<path d="M145.12,161.44v-28.85h9.69c4.46,0,7.27,1.59,8.46,4.78c0.34,0.93,0.51,1.88,0.51,2.88s-0.11,1.89-0.33,2.71
		s-0.55,1.57-0.98,2.27c-0.95,1.52-2.35,2.48-4.21,2.88l5.33,13.35h-4.67l-4.99-12.51h-4.27v12.51H145.12z M149.68,145.09h4.82
		c1.33,0,2.44-0.36,3.33-1.09c0.94-0.77,1.41-1.96,1.41-3.56c0-2.68-2.13-4.02-6.38-4.02h-3.18V145.09z"/>
	<path d="M165.52,150c-0.13-0.96-0.19-1.92-0.19-2.88s0.06-1.91,0.17-2.88s0.3-1.95,0.57-2.94c0.27-1,0.6-1.94,0.99-2.83
		s0.89-1.73,1.5-2.52c0.6-0.79,1.28-1.48,2.03-2.05c1.61-1.23,3.57-1.85,5.88-1.85c3.17,0,5.71,1.31,7.62,3.92
		c2.06,2.84,3.08,6.56,3.08,11.14c0,4.67-0.99,8.35-2.97,11.04c-1.85,2.51-4.43,3.77-7.73,3.77c-3.14,0-5.71-1.26-7.71-3.79
		C167.05,156.02,165.98,153.3,165.52,150z M170.23,142.98c-0.13,0.75-0.23,1.46-0.28,2.12c-0.05,0.66-0.08,1.34-0.08,2.03
		c0,0.69,0.03,1.37,0.08,2.05c0.05,0.67,0.14,1.38,0.28,2.13c0.13,0.75,0.3,1.44,0.5,2.08s0.48,1.25,0.83,1.84
		c0.35,0.59,0.74,1.09,1.17,1.51c0.98,0.91,2.21,1.37,3.69,1.37c4.13,0,6.19-3.67,6.19-11.01c0-5.98-1.4-9.58-4.19-10.82
		c-0.61-0.27-1.29-0.4-2.03-0.4c-0.74,0-1.43,0.13-2.06,0.4c-0.63,0.27-1.16,0.62-1.6,1.06c-0.44,0.44-0.83,0.97-1.18,1.59
		c-0.35,0.62-0.62,1.26-0.83,1.92C170.53,141.52,170.36,142.23,170.23,142.98z"/>
	<path d="M195.05,141.91v19.54h-4.46v-28.85h6.17l5.54,19.94h0.19l5.54-19.94h6.17v28.85h-4.47v-19.54h-0.17l-5.41,19.54h-3.5
		l-5.41-19.54H195.05z"/>
</g>
<g class="st2">
	<path d="M141.4,198.42l5.66-19.02h4.82l-8.57,28.85h-3.81l-8.57-28.85h4.82L141.4,198.42z"/>
	<path d="M153.8,208.24v-28.85h4.55v28.85H153.8z"/>
	<path d="M160.69,200.85l3.66-1.2c0.01,0,0.04,0.09,0.08,0.29s0.1,0.44,0.2,0.75c0.09,0.31,0.23,0.65,0.4,1.03
		c0.17,0.38,0.42,0.75,0.75,1.12c0.33,0.37,0.72,0.71,1.16,1.02c0.99,0.7,2.22,1.05,3.69,1.05s2.55-0.36,3.25-1.09
		c0.69-0.72,1.04-1.58,1.04-2.58c0-1-0.1-1.8-0.3-2.42c-0.2-0.62-0.56-1.15-1.07-1.61c-0.85-0.76-2.32-1.45-4.42-2.06
		c-3.69-1.08-6.07-2.75-7.12-5.01c-0.55-1.18-0.82-2.57-0.82-4.17c0-1.34,0.48-2.66,1.43-3.94c1.66-2.12,4.02-3.18,7.08-3.18
		c2.43,0,4.41,0.73,5.96,2.19c1.1,1.03,1.93,2.32,2.48,3.88l0.36,1.01c0.11,0.3,0.19,0.5,0.23,0.59l-3.71,1.31
		c-0.84-2.67-2.15-4.31-3.92-4.93c-0.44-0.15-0.91-0.23-1.39-0.23c-2.64,0-3.96,1.36-3.96,4.08c0,1.24,0.37,2.2,1.1,2.86
		c0.61,0.57,1.41,1.02,2.4,1.35l0.91,0.3c0.52,0.18,0.81,0.27,0.86,0.29l0.84,0.29c2.17,0.76,3.64,1.44,4.4,2.02
		c1.12,0.86,1.85,1.66,2.19,2.38c0.69,1.49,1.03,3.05,1.03,4.7c0,1.29-0.37,2.61-1.1,3.94c-0.99,1.79-2.56,2.96-4.7,3.52
		c-0.83,0.21-1.73,0.32-2.7,0.32s-1.9-0.09-2.75-0.27c-0.86-0.18-1.6-0.42-2.22-0.72s-1.19-0.65-1.71-1.05
		c-0.52-0.39-0.96-0.81-1.31-1.25c-0.36-0.44-0.67-0.88-0.93-1.31c-0.27-0.44-0.48-0.85-0.64-1.25c-0.16-0.39-0.29-0.74-0.39-1.05
		s-0.17-0.55-0.22-0.72C160.73,200.94,160.7,200.85,160.69,200.85z"/>
	<path d="M181.94,208.24v-28.85h4.55v28.85H181.94z"/>
	<path d="M188.42,183.22v-3.83h20.13v3.83h-7.79v25.02h-4.55v-25.02H188.42z"/>
</g>
</svg>
