<?xml version="1.0" encoding="utf-8"?>
<!-- Generator: Adobe Illustrator 25.0.0, SVG Export Plug-In . SVG Version: 6.00 Build 0)  -->
<svg version="1.1" id="Layer_1" xmlns="http://www.w3.org/2000/svg" xmlns:xlink="http://www.w3.org/1999/xlink" x="0px" y="0px"
	 viewBox="0 0 113.67 883.81" style="enable-background:new 0 0 113.67 883.81;" xml:space="preserve">
<style type="text/css">
	.st0{fill:#FFFFFF;}
</style>
<g>
	<path class="st0" d="M111.79,883.81H2.31v-36.78c0-16.91,6.05-27.61,18.14-32.09c3.52-1.3,7.15-1.95,10.91-1.95
		s7.18,0.42,10.26,1.26c3.08,0.84,5.95,2.08,8.6,3.72c5.78,3.61,9.42,8.94,10.91,15.97l50.66-20.23v17.71l-47.48,18.93v16.19h47.48
		V883.81z M49.72,866.54v-18.28c0-5.06-1.37-9.27-4.12-12.65c-2.94-3.56-7.44-5.35-13.51-5.35c-10.17,0-15.25,8.07-15.25,24.21
		v12.07H49.72z"/>
	<path class="st0" d="M68.36,806.41c-3.66,0.48-7.3,0.72-10.91,0.72s-7.25-0.22-10.91-0.65s-7.38-1.16-11.17-2.17
		c-3.78-1.01-7.36-2.26-10.73-3.76c-3.37-1.49-6.56-3.38-9.58-5.67c-3.01-2.29-5.6-4.85-7.77-7.7c-4.67-6.12-7.01-13.56-7.01-22.33
		c0-12.04,4.96-21.68,14.89-28.91c10.79-7.8,24.88-11.71,42.28-11.71c17.73,0,31.7,3.76,41.91,11.27
		c9.54,7.03,14.31,16.81,14.31,29.34c0,11.9-4.79,21.66-14.38,29.27C91.2,800.58,80.89,804.68,68.36,806.41z M41.73,788.53
		c2.87,0.51,5.55,0.86,8.06,1.05c2.51,0.19,5.07,0.29,7.7,0.29c2.63,0,5.22-0.1,7.77-0.29c2.55-0.19,5.25-0.54,8.09-1.05
		s5.47-1.14,7.88-1.92c2.41-0.77,4.73-1.82,6.97-3.14c2.24-1.32,4.16-2.81,5.75-4.44c3.47-3.71,5.2-8.38,5.2-14.02
		c0-15.66-13.92-23.49-41.77-23.49c-22.69,0-36.37,5.3-41.05,15.9c-1.01,2.31-1.52,4.88-1.52,7.7s0.51,5.42,1.52,7.8
		s2.35,4.41,4.01,6.07s3.67,3.16,6.04,4.48c2.36,1.33,4.79,2.37,7.3,3.14C36.18,787.38,38.87,788.02,41.73,788.53z"/>
	<path class="st0" d="M111.79,710.73H2.31v-35.19c0-10.31,2.53-18.33,7.59-24.06c4.87-5.54,11.06-8.31,18.57-8.31
		c12.38,0,20.28,4.48,23.7,13.44c0.63,1.54,1.18,3.35,1.66,5.42c1.16-6.07,4.07-11.08,8.74-15.03c4.96-4.19,11.47-6.29,19.51-6.29
		c11.47,0,19.58,3.61,24.35,10.84c3.56,5.54,5.35,13.35,5.35,23.41V710.73z M47.62,693.46v-17.78c0-4.87-1.88-9.08-5.64-12.65
		c-2.89-2.79-6.72-4.19-11.49-4.19c-9.11,0-13.66,5.61-13.66,16.84v17.78H47.62z M97.27,693.46v-18.5c0-6.74-1.59-11.51-4.77-14.31
		c-2.65-2.36-6.58-3.54-11.78-3.54c-4.29,0-8.33,1.61-12.14,4.84c-4.05,3.42-6.07,7.76-6.07,13.01v18.5H97.27z"/>
	<path class="st0" d="M68.36,631.38c-3.66,0.48-7.3,0.72-10.91,0.72s-7.25-0.22-10.91-0.65s-7.38-1.16-11.17-2.17
		c-3.78-1.01-7.36-2.26-10.73-3.76c-3.37-1.49-6.56-3.38-9.58-5.67c-3.01-2.29-5.6-4.85-7.77-7.7c-4.67-6.12-7.01-13.56-7.01-22.33
		c0-12.04,4.96-21.68,14.89-28.91c10.79-7.8,24.88-11.71,42.28-11.71c17.73,0,31.7,3.76,41.91,11.27
		c9.54,7.03,14.31,16.81,14.31,29.34c0,11.9-4.79,21.66-14.38,29.27C91.2,625.56,80.89,629.65,68.36,631.38z M41.73,613.5
		c2.87,0.51,5.55,0.86,8.06,1.05c2.51,0.19,5.07,0.29,7.7,0.29c2.63,0,5.22-0.1,7.77-0.29c2.55-0.19,5.25-0.54,8.09-1.05
		s5.47-1.14,7.88-1.92c2.41-0.77,4.73-1.82,6.97-3.14c2.24-1.32,4.16-2.81,5.75-4.44c3.47-3.71,5.2-8.38,5.2-14.02
		c0-15.66-13.92-23.49-41.77-23.49c-22.69,0-36.37,5.3-41.05,15.9c-1.01,2.31-1.52,4.88-1.52,7.7s0.51,5.42,1.52,7.8
		s2.35,4.41,4.01,6.07s3.67,3.16,6.04,4.48c2.36,1.33,4.79,2.37,7.3,3.14C36.18,612.36,38.87,612.99,41.73,613.5z"/>
	<path class="st0" d="M16.84,548.42H2.31v-76.38h14.53v29.56h94.96v17.27H16.84V548.42z"/>
	<path class="st0" d="M111.79,464.67H2.31V447.4h109.48V464.67z"/>
	<path class="st0" d="M70.6,434.53c-4.53,0.77-9.11,1.16-13.73,1.16s-9.18-0.36-13.66-1.08s-8.85-1.79-13.12-3.22
		c-4.26-1.42-8.19-3.28-11.78-5.56c-3.59-2.29-6.73-4.9-9.43-7.84c-5.73-6.26-8.6-14.04-8.6-23.34c0-11.8,5.9-21.12,17.71-27.97
		c5.73-3.32,11.63-5.56,17.71-6.72h0.07l4.05,15.03c-5.15,0.77-8.93,1.69-11.31,2.75c-2.38,1.06-4.38,2.12-6,3.18
		c-1.61,1.06-2.95,2.22-4.01,3.47c-2.46,2.99-3.69,6.37-3.69,10.15c0,3.78,0.86,7.02,2.56,9.72c1.71,2.7,3.95,4.91,6.72,6.65
		c2.77,1.73,6.01,3.18,9.72,4.34c6.84,2.12,14.55,3.18,23.12,3.18c22.74,0,36.33-5.4,40.76-16.19c0.96-2.31,1.45-4.77,1.45-7.37
		s-0.34-4.93-1.01-6.97c-0.67-2.05-1.55-3.77-2.64-5.17c-1.08-1.4-2.37-2.64-3.87-3.72s-3-1.95-4.52-2.6s-3.07-1.17-4.66-1.55
		c-2.79-0.72-5.4-1.08-7.8-1.08l2.24-16.12c9.25,2.17,17.27,5.95,24.06,11.35c8.48,6.84,12.72,15.44,12.72,25.8
		c0,12.72-6.05,22.96-18.14,30.71C88.74,429.88,80.43,432.9,70.6,434.53z"/>
	<path class="st0" d="M83.76,353.02l-4.55-13.88c0-0.05,0.36-0.14,1.08-0.29s1.67-0.4,2.85-0.76c1.18-0.36,2.48-0.87,3.9-1.52
		c1.42-0.65,2.84-1.6,4.26-2.85c1.42-1.25,2.71-2.72,3.87-4.41c2.65-3.76,3.97-8.43,3.97-14.02c0-5.59-1.37-9.7-4.12-12.32
		c-2.75-2.62-6.01-3.94-9.79-3.94c-3.78,0-6.84,0.39-9.18,1.16c-2.34,0.77-4.37,2.12-6.11,4.05c-2.89,3.23-5.49,8.82-7.8,16.77
		c-4.1,14.02-10.43,23.03-19.01,27.03c-4.48,2.07-9.76,3.11-15.83,3.11c-5.11,0-10.09-1.81-14.96-5.42
		c-8.05-6.31-12.07-15.27-12.07-26.88c0-9.2,2.77-16.74,8.31-22.62c3.9-4.19,8.82-7.32,14.74-9.39l3.83-1.37
		c1.16-0.43,1.9-0.72,2.24-0.87l4.99,14.09c-10.12,3.18-16.36,8.14-18.72,14.89c-0.58,1.69-0.87,3.45-0.87,5.28
		c0,10.02,5.15,15.03,15.46,15.03c4.72,0,8.33-1.4,10.84-4.19c2.17-2.31,3.88-5.35,5.13-9.11l1.16-3.47
		c0.67-1.97,1.04-3.06,1.08-3.25l1.08-3.18c2.89-8.24,5.44-13.8,7.66-16.69c3.28-4.24,6.29-7.01,9.03-8.31
		c5.64-2.6,11.59-3.9,17.85-3.9c4.91,0,9.9,1.4,14.96,4.19c6.79,3.76,11.25,9.71,13.37,17.85c0.82,3.13,1.23,6.55,1.23,10.26
		c0,3.71-0.34,7.19-1.01,10.44c-0.68,3.25-1.59,6.06-2.75,8.42c-1.16,2.36-2.48,4.53-3.97,6.5c-1.49,1.98-3.07,3.64-4.73,4.99
		c-1.66,1.35-3.32,2.53-4.99,3.54s-3.24,1.82-4.73,2.42c-1.49,0.6-2.82,1.1-3.97,1.48c-1.16,0.39-2.07,0.66-2.75,0.83
		C84.09,352.86,83.76,352.97,83.76,353.02z"/>
	<path class="st0" d="M82.09,235.37c-13.06,0-24.4-7.08-34.04-21.25c-2.99,1.59-7,3-12.03,4.23c-5.03,1.23-9.36,1.84-12.97,1.84
		s-7.2-1.01-10.77-3.04s-6.5-4.82-8.82-8.38C1.16,205.21,0,201.3,0,197.03s1.12-8.23,3.36-11.89c2.24-3.66,5.1-6.44,8.56-8.35
		c3.47-1.9,6.9-2.85,10.3-2.85s6.38,0.43,8.96,1.3c2.58,0.87,4.78,1.94,6.61,3.22c1.83,1.28,3.7,3.01,5.6,5.2
		c1.9,2.19,3.46,4.23,4.66,6.11l4.34,7.08c4.91-3.08,10.67-7.29,17.27-12.61c6.6-5.32,10.82-9.02,12.65-11.09
		c-6.5-3.28-14.38-4.75-23.63-4.41v-15.46c12.62,0,23.82,3.66,33.6,10.98c2.02-3.08,2.94-7.83,2.75-14.24
		c-0.05-1.59-0.07-2.72-0.07-3.4h16.84c0,7.61-0.25,12.21-0.76,13.8s-1.05,3.08-1.62,4.48c-1.01,2.46-2.89,5.06-5.64,7.8
		c3.66,3.76,6.13,8.01,7.41,12.75c1.28,4.75,1.92,10.12,1.92,16.12s-1.4,11.6-4.19,16.8s-6.58,9.33-11.35,12.39
		C92.79,233.84,87.63,235.37,82.09,235.37z M24.79,204.73c7.03,0,12.24-0.7,15.61-2.1c-5.11-9.88-10.65-14.81-16.62-14.81
		c-2.6,0-5,0.74-7.19,2.2c-2.19,1.47-3.29,3.52-3.29,6.14c0,2.63,1.08,4.71,3.25,6.25C18.72,203.96,21.46,204.73,24.79,204.73z
		 M67.42,215.93c3.08,2.65,7.11,3.97,12.07,3.97s9.46-1.61,13.48-4.84c4.02-3.23,6.04-7.33,6.04-12.32s-0.48-8.85-1.45-11.6
		s-2.65-5.56-5.06-8.46c-1.88,1.73-4.48,3.88-7.8,6.43l-24.93,18.5C63.52,212,66.07,214.77,67.42,215.93z"/>
	<path class="st0" d="M111.79,105.94L2.31,74.72V55.79l109.48-31.22v16.69L80.07,50.3v28.69l31.72,9.03V105.94z M65.54,74.87V54.42
		L30.21,64.61L65.54,74.87z"/>
	<path class="st0" d="M111.79,17.27H2.31V0h109.48V17.27z"/>
</g>
</svg>
