<?xml version="1.0" encoding="utf-8"?>
<!-- Generator: Adobe Illustrator 25.0.1, SVG Export Plug-In . SVG Version: 6.00 Build 0)  -->
<svg version="1.1" id="Layer_1" xmlns="http://www.w3.org/2000/svg" xmlns:xlink="http://www.w3.org/1999/xlink" x="0px" y="0px"
	 viewBox="0 0 113.4 294.5" style="enable-background:new 0 0 113.4 294.5;" xml:space="preserve">
<style type="text/css">
	.st0{fill:#F5C85F;}
</style>
<g>
	<path class="st0" d="M74.2,254.8L2,233.4v-18.3l109.5,32.5V262L2,294.5v-18.3L74.2,254.8z"/>
	<path class="st0" d="M111.5,207.8H2v-17.3h109.5C111.5,190.5,111.5,207.8,111.5,207.8z"/>
	<path class="st0" d="M83.5,181.6l-4.6-13.9c0-0.1,0.4-0.1,1.1-0.3s1.7-0.4,2.8-0.8s2.5-0.9,3.9-1.5c1.4-0.6,2.8-1.6,4.3-2.9
		c1.4-1.2,2.7-2.7,3.9-4.4c2.7-3.8,4-8.4,4-14s-1.4-9.7-4.1-12.3c-2.8-2.6-6-3.9-9.8-3.9s-6.8,0.4-9.2,1.2s-4.4,2.1-6.1,4.1
		c-2.9,3.2-5.5,8.8-7.8,16.8c-4.1,14-10.4,23-19,27c-4.5,2.1-9.8,3.1-15.8,3.1c-5.1,0-10.1-1.8-15-5.4C4,168,0,159,0,147.4
		c0-9.2,2.8-16.7,8.3-22.6c3.9-4.2,8.8-7.3,14.7-9.4l3.8-1.4c1.2-0.4,1.9-0.7,2.2-0.9l5,14.1c-10.1,3.2-16.4,8.1-18.7,14.9
		c-0.6,1.7-0.9,3.4-0.9,5.3c0,10,5.2,15,15.5,15c4.7,0,8.3-1.4,10.8-4.2c2.2-2.3,3.9-5.4,5.1-9.1l1.2-3.5c0.7-2,1-3.1,1.1-3.2
		l1.1-3.2c2.9-8.2,5.5-13.8,7.7-16.7c3.3-4.2,6.3-7,9-8.3c5.6-2.6,11.6-3.9,17.8-3.9c4.9,0,9.9,1.4,15,4.2
		c6.8,3.8,11.2,9.7,13.4,17.8c0.8,3.1,1.2,6.6,1.2,10.3c0,3.7-0.3,7.2-1,10.4s-1.6,6.1-2.8,8.4s-2.5,4.5-4,6.5c-1.5,2-3.1,3.6-4.7,5
		s-3.3,2.5-5,3.5s-3.2,1.8-4.7,2.4c-1.5,0.6-2.8,1.1-4,1.5c-1.2,0.4-2.1,0.7-2.8,0.8C83.8,181.4,83.5,181.6,83.5,181.6z"/>
	<path class="st0" d="M111.5,101H2V83.7h109.5C111.5,83.7,111.5,101,111.5,101z"/>
	<path class="st0" d="M16.6,76.4H2V0h14.5v29.6h95v17.3h-95V76.4z"/>
</g>
</svg>
