<?xml version="1.0" encoding="utf-8"?>
<!-- Generator: Adobe Illustrator 25.0.1, SVG Export Plug-In . SVG Version: 6.00 Build 0)  -->
<svg version="1.1" id="Layer_1" xmlns="http://www.w3.org/2000/svg" xmlns:xlink="http://www.w3.org/1999/xlink" x="0px" y="0px"
	 viewBox="0 0 113.4 294.5" style="enable-background:new 0 0 113.4 294.5;" xml:space="preserve">
<style type="text/css">
	.st0{fill:#EC665E;}
</style>
<g>
	<path class="st0" d="M39.1,39.7l72.2,21.5v18.3L1.8,47V32.5L111.3,0v18.3L39.1,39.7z"/>
	<path class="st0" d="M1.8,86.8h109.5v17.3H1.8C1.8,104.1,1.8,86.8,1.8,86.8z"/>
	<path class="st0" d="M29.9,112.9l4.6,13.9c0,0.1-0.4,0.1-1.1,0.3s-1.7,0.4-2.8,0.8s-2.5,0.9-3.9,1.5c-1.4,0.6-2.8,1.6-4.3,2.9
		c-1.4,1.2-2.7,2.7-3.9,4.4c-2.7,3.8-4,8.4-4,14s1.4,9.7,4.1,12.3c2.8,2.6,6,3.9,9.8,3.9s6.8-0.4,9.2-1.2s4.4-2.1,6.1-4.1
		c2.9-3.2,5.5-8.8,7.8-16.8c4.1-14,10.4-23,19-27c4.5-2.1,9.8-3.1,15.8-3.1c5.1,0,10.1,1.8,15,5.4c8,6.3,12.1,15.3,12.1,26.9
		c0,9.2-2.8,16.7-8.3,22.6c-3.9,4.2-8.8,7.3-14.7,9.4l-3.8,1.4c-1.2,0.4-1.9,0.7-2.2,0.9l-5-14.1c10.1-3.2,16.4-8.1,18.7-14.9
		c0.6-1.7,0.9-3.4,0.9-5.3c0-10-5.2-15-15.5-15c-4.7,0-8.3,1.4-10.8,4.2c-2.2,2.3-3.9,5.4-5.1,9.1l-1.2,3.5c-0.7,2-1,3.1-1.1,3.2
		l-1.1,3.2c-2.9,8.2-5.5,13.8-7.7,16.7c-3.3,4.2-6.3,7-9,8.3c-5.6,2.6-11.6,3.9-17.8,3.9c-4.9,0-9.9-1.4-15-4.2
		c-6.8-3.8-11.2-9.7-13.4-17.8C0.4,159,0,155.6,0,151.9c0-3.7,0.3-7.2,1-10.4s1.6-6.1,2.8-8.4s2.5-4.5,4-6.5c1.5-2,3.1-3.6,4.7-5
		s3.3-2.5,5-3.5s3.2-1.8,4.7-2.4c1.5-0.6,2.8-1.1,4-1.5c1.2-0.4,2.1-0.7,2.8-0.8C29.5,113.1,29.9,113,29.9,112.9z"/>
	<path class="st0" d="M1.8,193.6h109.5v17.3H1.8C1.8,210.9,1.8,193.6,1.8,193.6z"/>
	<path class="st0" d="M96.8,218.2h14.5v76.4H96.8V265h-95v-17.3h95V218.2z"/>
</g>
</svg>
